<?xml version="1.0" encoding="UTF-8"?>
<svg width="201px" height="60px" viewBox="0 0 201 60" version="1.1" xmlns="http://www.w3.org/2000/svg" xmlns:xlink="http://www.w3.org/1999/xlink">
    <!-- Generator: Sketch 55.2 (78181) - https://sketchapp.com -->
    <title>chrome</title>
    <desc>Created with Sketch.</desc>
    <defs>
        <path d="M0,0 L0,36.4583333 C0,38.1770833 1.40625,39.5833333 3.125,39.5833333 L42.7083333,39.5833333 C44.4270833,39.5833333 45.8333333,38.1770833 45.8333333,36.4583333 L45.8333333,0 L0,0 Z M28.125,8.33333333 L17.7083333,8.33333333 C16.5572917,8.33333333 15.625,7.40104167 15.625,6.25 C15.625,5.09895833 16.5572917,4.16666667 17.7083333,4.16666667 L28.125,4.16666667 C29.2760417,4.16666667 30.2083333,5.09895833 30.2083333,6.25 C30.2083333,7.40104167 29.2760417,8.33333333 28.125,8.33333333 Z" id="path-1"></path>
        <path d="M0,0 L0,36.4583333 C0,38.1770833 1.40625,39.5833333 3.125,39.5833333 L42.7083333,39.5833333 C44.4270833,39.5833333 45.8333333,38.1770833 45.8333333,36.4583333 L45.8333333,0 L0,0 Z M28.125,8.33333333 L17.7083333,8.33333333 C16.5572917,8.33333333 15.625,7.40104167 15.625,6.25 C15.625,5.09895833 16.5572917,4.16666667 17.7083333,4.16666667 L28.125,4.16666667 C29.2760417,4.16666667 30.2083333,5.09895833 30.2083333,6.25 C30.2083333,7.40104167 29.2760417,8.33333333 28.125,8.33333333 Z" id="path-3"></path>
        <path d="M0,0 L0,36.4583333 C0,38.1770833 1.40625,39.5833333 3.125,39.5833333 L42.7083333,39.5833333 C44.4270833,39.5833333 45.8333333,38.1770833 45.8333333,36.4583333 L45.8333333,0 L0,0 Z M28.125,8.33333333 L17.7083333,8.33333333 C16.5572917,8.33333333 15.625,7.40104167 15.625,6.25 C15.625,5.09895833 16.5572917,4.16666667 17.7083333,4.16666667 L28.125,4.16666667 C29.2760417,4.16666667 30.2083333,5.09895833 30.2083333,6.25 C30.2083333,7.40104167 29.2760417,8.33333333 28.125,8.33333333 Z" id="path-5"></path>
        <circle id="path-7" cx="19.7916667" cy="19.7916667" r="19.7916667"></circle>
        <circle id="path-9" cx="19.7916667" cy="19.7916667" r="19.7916667"></circle>
        <circle id="path-11" cx="19.7916667" cy="19.7916667" r="19.7916667"></circle>
        <circle id="path-13" cx="19.7916667" cy="19.7916667" r="19.7916667"></circle>
        <path d="M0,0 L0,36.4583333 C0,38.1770833 1.40625,39.5833333 3.125,39.5833333 L42.7083333,39.5833333 C44.4270833,39.5833333 45.8333333,38.1770833 45.8333333,36.4583333 L45.8333333,0 L0,0 Z M28.125,8.33333333 L17.7083333,8.33333333 C16.5572917,8.33333333 15.625,7.40104167 15.625,6.25 C15.625,5.09895833 16.5572917,4.16666667 17.7083333,4.16666667 L28.125,4.16666667 C29.2760417,4.16666667 30.2083333,5.09895833 30.2083333,6.25 C30.2083333,7.40104167 29.2760417,8.33333333 28.125,8.33333333 Z" id="path-15"></path>
        <radialGradient cx="-0.282954545%" cy="-0.431578947%" fx="-0.282954545%" fy="-0.431578947%" r="149.734211%" gradientTransform="translate(-0.002830,-0.004316),scale(0.863636,1.000000),translate(0.002830,0.004316)" id="radialGradient-17">
            <stop stop-color="#FFFFFF" stop-opacity="0.1" offset="0%"></stop>
            <stop stop-color="#FFFFFF" stop-opacity="0" offset="100%"></stop>
        </radialGradient>
    </defs>
    <g id="chrome" stroke="none" stroke-width="1" fill="none" fill-rule="evenodd">
        <path d="M5.1277704,-2.07168062e-16 L195.87223,2.07168062e-16 C197.655267,-1.2037061e-16 198.30184,0.185651222 198.953691,0.534265408 C199.605543,0.882879593 200.11712,1.39445674 200.465735,2.04630859 C200.814349,2.69816044 201,3.34473292 201,5.1277704 L201,54.8722296 C201,56.6552671 200.814349,57.3018396 200.465735,57.9536914 C200.11712,58.6055433 199.605543,59.1171204 198.953691,59.4657346 C198.30184,59.8143488 197.655267,60 195.87223,60 L5.1277704,60 C3.34473292,60 2.69816044,59.8143488 2.04630859,59.4657346 C1.39445674,59.1171204 0.882879593,58.6055433 0.534265408,57.9536914 C0.185651222,57.3018396 8.02470732e-17,56.6552671 -1.38112041e-16,54.8722296 L1.38112041e-16,5.1277704 C-8.02470732e-17,3.34473292 0.185651222,2.69816044 0.534265408,2.04630859 C0.882879593,1.39445674 1.39445674,0.882879593 2.04630859,0.534265408 C2.69816044,0.185651222 3.34473292,1.2037061e-16 5.1277704,-2.07168062e-16 Z" id="矩形" fill="#109AD6"></path>
        <path d="M69.372,17.432 L70.512,17.432 L73.884,26 L72.816,26 L71.904,23.6 L67.968,23.6 L67.056,26 L66,26 L69.372,17.432 Z M68.28,22.772 L71.592,22.772 L69.972,18.488 L69.924,18.488 L68.28,22.772 Z M73.344,19.796 L74.4,19.796 L76.176,24.8 L77.952,19.796 L79.008,19.796 L76.656,26 L75.684,26 L73.344,19.796 Z M81.912,19.628 C82.8,19.628 83.448,19.856 83.88,20.324 C84.24,20.732 84.432,21.296 84.432,22.016 L84.432,26 L83.532,26 L83.532,24.956 C83.292,25.292 82.968,25.568 82.584,25.784 C82.128,26.036 81.612,26.168 81.036,26.168 C80.412,26.168 79.92,26.012 79.548,25.7 C79.164,25.376 78.972,24.956 78.972,24.452 C78.972,23.744 79.248,23.216 79.824,22.856 C80.328,22.52 81.048,22.34 81.984,22.328 L83.472,22.304 L83.472,21.98 C83.472,20.936 82.932,20.42 81.852,20.42 C81.396,20.42 81.024,20.504 80.736,20.696 C80.412,20.888 80.208,21.188 80.112,21.584 L79.164,21.512 C79.296,20.864 79.62,20.372 80.124,20.06 C80.58,19.772 81.168,19.628 81.912,19.628 Z M83.472,23.024 L82.044,23.048 C80.652,23.072 79.956,23.528 79.956,24.428 C79.956,24.716 80.064,24.944 80.304,25.136 C80.544,25.316 80.856,25.412 81.24,25.412 C81.828,25.412 82.344,25.22 82.8,24.836 C83.244,24.464 83.472,24.032 83.472,23.552 L83.472,23.024 Z M86.112,17.456 C86.316,17.456 86.484,17.516 86.628,17.66 C86.772,17.78 86.844,17.948 86.844,18.164 C86.844,18.368 86.772,18.536 86.628,18.68 C86.484,18.812 86.316,18.884 86.112,18.884 C85.908,18.884 85.74,18.812 85.596,18.68 C85.452,18.536 85.392,18.368 85.392,18.164 C85.392,17.948 85.452,17.78 85.596,17.66 C85.74,17.516 85.908,17.456 86.112,17.456 Z M85.632,19.796 L86.592,19.796 L86.592,26 L85.632,26 L85.632,19.796 Z M87.984,17.264 L88.932,17.264 L88.932,26 L87.984,26 L87.984,17.264 Z M92.712,19.628 C93.6,19.628 94.248,19.856 94.68,20.324 C95.04,20.732 95.232,21.296 95.232,22.016 L95.232,26 L94.332,26 L94.332,24.956 C94.092,25.292 93.768,25.568 93.384,25.784 C92.928,26.036 92.412,26.168 91.836,26.168 C91.212,26.168 90.72,26.012 90.348,25.7 C89.964,25.376 89.772,24.956 89.772,24.452 C89.772,23.744 90.048,23.216 90.624,22.856 C91.128,22.52 91.848,22.34 92.784,22.328 L94.272,22.304 L94.272,21.98 C94.272,20.936 93.732,20.42 92.652,20.42 C92.196,20.42 91.824,20.504 91.536,20.696 C91.212,20.888 91.008,21.188 90.912,21.584 L89.964,21.512 C90.096,20.864 90.42,20.372 90.924,20.06 C91.38,19.772 91.968,19.628 92.712,19.628 Z M94.272,23.024 L92.844,23.048 C91.452,23.072 90.756,23.528 90.756,24.428 C90.756,24.716 90.864,24.944 91.104,25.136 C91.344,25.316 91.656,25.412 92.04,25.412 C92.628,25.412 93.144,25.22 93.6,24.836 C94.044,24.464 94.272,24.032 94.272,23.552 L94.272,23.024 Z M96.12,17.264 L97.08,17.264 L97.08,20.936 C97.56,20.06 98.244,19.628 99.132,19.628 C100.008,19.628 100.704,19.952 101.208,20.624 C101.664,21.224 101.904,21.968 101.904,22.88 C101.904,23.816 101.664,24.584 101.208,25.184 C100.692,25.832 99.984,26.168 99.084,26.168 C98.124,26.168 97.44,25.772 97.02,24.98 L97.02,26 L96.12,26 L96.12,17.264 Z M98.928,20.42 C98.364,20.42 97.908,20.636 97.572,21.092 C97.212,21.536 97.044,22.124 97.044,22.844 L97.044,22.964 C97.044,23.66 97.2,24.224 97.512,24.656 C97.848,25.136 98.34,25.376 98.964,25.376 C99.636,25.376 100.14,25.124 100.476,24.644 C100.764,24.212 100.92,23.624 100.92,22.88 C100.92,22.136 100.764,21.56 100.452,21.14 C100.104,20.66 99.6,20.42 98.928,20.42 Z M102.744,17.264 L103.692,17.264 L103.692,26 L102.744,26 L102.744,17.264 Z M107.328,19.628 C108.324,19.628 109.08,19.964 109.584,20.636 C110.04,21.236 110.28,22.088 110.304,23.168 L105.408,23.168 C105.456,23.864 105.636,24.404 105.972,24.788 C106.308,25.172 106.776,25.364 107.364,25.364 C107.868,25.364 108.288,25.232 108.6,24.98 C108.864,24.764 109.068,24.44 109.224,24.008 L110.184,24.008 C110.04,24.608 109.764,25.088 109.344,25.472 C108.828,25.928 108.168,26.168 107.364,26.168 C106.476,26.168 105.756,25.868 105.228,25.292 C104.676,24.692 104.412,23.9 104.412,22.892 C104.412,21.98 104.664,21.212 105.192,20.6 C105.72,19.952 106.428,19.628 107.328,19.628 Z M107.352,20.432 C106.8,20.432 106.356,20.612 106.02,20.972 C105.684,21.332 105.492,21.812 105.432,22.424 L109.308,22.424 C109.188,21.092 108.528,20.432 107.352,20.432 Z M115.02,17.456 C115.224,17.456 115.392,17.516 115.536,17.66 C115.68,17.78 115.752,17.948 115.752,18.164 C115.752,18.368 115.68,18.536 115.536,18.68 C115.392,18.812 115.224,18.884 115.02,18.884 C114.816,18.884 114.648,18.812 114.504,18.68 C114.36,18.536 114.3,18.368 114.3,18.164 C114.3,17.948 114.36,17.78 114.504,17.66 C114.648,17.516 114.816,17.456 115.02,17.456 Z M114.54,19.796 L115.5,19.796 L115.5,26 L114.54,26 L114.54,19.796 Z M119.604,19.628 C121.14,19.628 121.92,20.48 121.92,22.184 L121.92,26 L120.96,26 L120.96,22.256 C120.96,21.044 120.408,20.444 119.328,20.444 C118.896,20.444 118.524,20.6 118.212,20.912 C117.876,21.248 117.696,21.692 117.66,22.256 L117.66,26 L116.7,26 L116.7,19.796 L117.66,19.796 L117.66,20.708 C117.876,20.36 118.152,20.096 118.488,19.916 C118.824,19.724 119.196,19.628 119.604,19.628 Z M127.86,17.792 L127.86,19.796 L129.396,19.796 L129.396,20.6 L127.86,20.6 L127.86,24.548 C127.86,24.776 127.896,24.944 127.992,25.04 C128.076,25.136 128.232,25.196 128.448,25.196 L129.24,25.196 L129.24,26 L128.304,26 C127.8,26 127.428,25.868 127.212,25.604 C127.008,25.364 126.912,25.016 126.912,24.548 L126.912,20.6 L125.664,20.6 L125.664,19.796 L126.912,19.796 L126.912,18.188 L127.86,17.792 Z M129.864,17.264 L130.824,17.264 L130.824,20.816 C131.04,20.42 131.328,20.12 131.688,19.916 C132.024,19.724 132.396,19.628 132.816,19.628 C133.536,19.628 134.1,19.832 134.484,20.264 C134.868,20.684 135.06,21.296 135.06,22.088 L135.06,26 L134.1,26 L134.1,22.232 C134.1,21.656 133.956,21.212 133.692,20.9 C133.404,20.588 133.008,20.432 132.492,20.432 C132.012,20.432 131.616,20.624 131.304,21.008 C130.98,21.392 130.824,21.884 130.824,22.46 L130.824,26 L129.864,26 L129.864,17.264 Z M138.492,19.628 C139.488,19.628 140.244,19.964 140.748,20.636 C141.204,21.236 141.444,22.088 141.468,23.168 L136.572,23.168 C136.62,23.864 136.8,24.404 137.136,24.788 C137.472,25.172 137.94,25.364 138.528,25.364 C139.032,25.364 139.452,25.232 139.764,24.98 C140.028,24.764 140.232,24.44 140.388,24.008 L141.348,24.008 C141.204,24.608 140.928,25.088 140.508,25.472 C139.992,25.928 139.332,26.168 138.528,26.168 C137.64,26.168 136.92,25.868 136.392,25.292 C135.84,24.692 135.576,23.9 135.576,22.892 C135.576,21.98 135.828,21.212 136.356,20.6 C136.884,19.952 137.592,19.628 138.492,19.628 Z M138.516,20.432 C137.964,20.432 137.52,20.612 137.184,20.972 C136.848,21.332 136.656,21.812 136.596,22.424 L140.472,22.424 C140.352,21.092 139.692,20.432 138.516,20.432 Z" id="Availableinthe" fill="#FFFFFF" fill-rule="nonzero"></path>
        <path d="M71.7,31.08 C72.945,31.08 73.98,31.395 74.79,32.055 C75.57,32.685 76.05,33.555 76.215,34.635 L74.625,34.635 C74.445,33.915 74.1,33.375 73.59,33.03 C73.08,32.685 72.45,32.52 71.67,32.52 C70.515,32.52 69.645,32.91 69.06,33.705 C68.505,34.425 68.235,35.415 68.235,36.66 C68.235,37.95 68.505,38.94 69.045,39.645 C69.615,40.395 70.5,40.77 71.7,40.77 C72.48,40.77 73.14,40.575 73.65,40.185 C74.19,39.765 74.565,39.135 74.775,38.295 L76.365,38.295 C76.125,39.54 75.57,40.515 74.685,41.22 C73.86,41.88 72.87,42.21 71.715,42.21 C69.96,42.21 68.64,41.64 67.755,40.53 C66.975,39.57 66.6,38.28 66.6,36.66 C66.6,35.07 66.99,33.78 67.8,32.775 C68.7,31.635 69.99,31.08 71.7,31.08 Z M77.265,31.08 L78.855,31.08 L78.855,35.34 C79.14,34.89 79.5,34.545 79.935,34.335 C80.325,34.125 80.76,34.035 81.255,34.035 C82.185,34.035 82.89,34.305 83.37,34.86 C83.82,35.385 84.045,36.165 84.045,37.185 L84.045,42 L82.455,42 L82.455,37.455 C82.455,36.765 82.305,36.255 82.035,35.895 C81.735,35.52 81.27,35.34 80.67,35.34 C80.13,35.34 79.695,35.55 79.365,35.985 C79.02,36.42 78.855,36.975 78.855,37.65 L78.855,42 L77.265,42 L77.265,31.08 Z M88.845,34.035 C89.235,34.035 89.58,34.095 89.85,34.23 L89.85,35.82 C89.46,35.7 89.085,35.655 88.725,35.655 C88.245,35.655 87.81,35.85 87.435,36.24 C87.03,36.66 86.835,37.215 86.835,37.89 L86.835,42 L85.245,42 L85.245,34.245 L86.835,34.245 L86.835,35.415 C87.03,34.995 87.285,34.68 87.585,34.47 C87.945,34.17 88.365,34.035 88.845,34.035 Z M93.795,34.035 C94.965,34.035 95.91,34.425 96.615,35.205 C97.305,35.97 97.665,36.945 97.665,38.13 C97.665,39.3 97.32,40.275 96.63,41.025 C95.91,41.805 94.965,42.21 93.795,42.21 C92.625,42.21 91.68,41.805 90.96,41.025 C90.27,40.275 89.925,39.3 89.925,38.13 C89.925,36.945 90.27,35.97 90.975,35.205 C91.68,34.425 92.625,34.035 93.795,34.035 Z M93.795,35.34 C93.06,35.34 92.49,35.625 92.085,36.21 C91.725,36.705 91.56,37.35 91.56,38.13 C91.56,38.91 91.725,39.54 92.085,40.035 C92.49,40.605 93.06,40.905 93.795,40.905 C94.53,40.905 95.1,40.605 95.52,40.035 C95.88,39.525 96.06,38.895 96.06,38.13 C96.06,37.35 95.88,36.705 95.52,36.21 C95.1,35.625 94.53,35.34 93.795,35.34 Z M102.3,34.035 C103.44,34.035 104.265,34.47 104.745,35.34 C105.09,34.86 105.465,34.515 105.855,34.32 C106.215,34.125 106.65,34.035 107.175,34.035 C107.97,34.035 108.63,34.29 109.155,34.83 C109.665,35.355 109.935,36.045 109.935,36.915 L109.935,42 L108.345,42 L108.345,37.185 C108.345,36.555 108.21,36.09 107.94,35.805 C107.67,35.505 107.22,35.37 106.62,35.37 C106.17,35.37 105.81,35.535 105.51,35.865 C105.21,36.195 105.06,36.66 105.06,37.23 L105.06,42 L103.47,42 L103.47,37.2 C103.47,35.97 102.93,35.37 101.88,35.37 C101.37,35.37 100.95,35.565 100.65,35.955 C100.32,36.33 100.17,36.795 100.17,37.335 L100.17,42 L98.58,42 L98.58,34.245 L100.17,34.245 L100.17,35.1 C100.8,34.38 101.52,34.035 102.3,34.035 Z M114.42,34.035 C115.68,34.035 116.655,34.455 117.315,35.325 C117.915,36.105 118.23,37.185 118.245,38.565 L112.365,38.565 C112.425,39.315 112.62,39.9 112.98,40.305 C113.34,40.695 113.835,40.905 114.465,40.905 C115.02,40.905 115.47,40.77 115.815,40.515 C116.085,40.305 116.31,39.96 116.52,39.51 L118.11,39.51 C117.93,40.23 117.585,40.845 117.045,41.325 C116.37,41.91 115.515,42.21 114.48,42.21 C113.34,42.21 112.425,41.85 111.765,41.145 C111.045,40.395 110.685,39.39 110.685,38.115 C110.685,36.96 111.015,36 111.705,35.22 C112.365,34.425 113.28,34.035 114.42,34.035 Z M114.465,35.34 C113.865,35.34 113.4,35.505 113.04,35.865 C112.71,36.21 112.485,36.705 112.395,37.365 L116.58,37.365 C116.43,36.015 115.725,35.34 114.465,35.34 Z M122.565,31.29 L124.41,31.29 L126.495,39.63 L126.555,39.63 L128.745,31.29 L130.455,31.29 L132.645,39.63 L132.705,39.63 L134.79,31.29 L136.635,31.29 L133.545,42 L131.805,42 L129.63,33.735 L129.57,33.735 L127.395,42 L125.64,42 L122.565,31.29 Z M140.295,34.035 C141.555,34.035 142.53,34.455 143.19,35.325 C143.79,36.105 144.105,37.185 144.12,38.565 L138.24,38.565 C138.3,39.315 138.495,39.9 138.855,40.305 C139.215,40.695 139.71,40.905 140.34,40.905 C140.895,40.905 141.345,40.77 141.69,40.515 C141.96,40.305 142.185,39.96 142.395,39.51 L143.985,39.51 C143.805,40.23 143.46,40.845 142.92,41.325 C142.245,41.91 141.39,42.21 140.355,42.21 C139.215,42.21 138.3,41.85 137.64,41.145 C136.92,40.395 136.56,39.39 136.56,38.115 C136.56,36.96 136.89,36 137.58,35.22 C138.24,34.425 139.155,34.035 140.295,34.035 Z M140.34,35.34 C139.74,35.34 139.275,35.505 138.915,35.865 C138.585,36.21 138.36,36.705 138.27,37.365 L142.455,37.365 C142.305,36.015 141.6,35.34 140.34,35.34 Z M144.87,31.08 L146.46,31.08 L146.46,35.4 C147.09,34.485 147.87,34.035 148.83,34.035 C149.94,34.035 150.81,34.44 151.455,35.25 C152.04,36 152.34,36.945 152.34,38.085 C152.34,39.27 152.04,40.245 151.44,40.995 C150.78,41.805 149.895,42.21 148.755,42.21 C147.69,42.21 146.895,41.82 146.355,41.07 L146.355,42 L144.87,42 L144.87,31.08 Z M148.47,35.325 C147.87,35.325 147.39,35.55 147.03,36.03 C146.61,36.54 146.415,37.215 146.415,38.055 L146.415,38.19 C146.415,38.97 146.58,39.6 146.91,40.095 C147.285,40.635 147.825,40.92 148.515,40.92 C149.295,40.92 149.865,40.635 150.24,40.08 C150.54,39.6 150.705,38.94 150.705,38.085 C150.705,37.23 150.54,36.57 150.21,36.12 C149.835,35.58 149.25,35.325 148.47,35.325 Z M161.535,31.08 C162.78,31.08 163.755,31.335 164.46,31.875 C165.21,32.43 165.63,33.285 165.735,34.455 L164.115,34.455 C163.965,33.765 163.695,33.255 163.275,32.955 C162.855,32.64 162.255,32.49 161.445,32.49 C160.74,32.49 160.2,32.595 159.825,32.805 C159.36,33.045 159.135,33.435 159.135,33.975 C159.135,34.455 159.39,34.83 159.93,35.115 C160.17,35.25 160.785,35.475 161.79,35.775 C163.23,36.225 164.175,36.57 164.595,36.825 C165.51,37.38 165.975,38.145 165.975,39.135 C165.975,40.095 165.6,40.845 164.85,41.4 C164.1,41.94 163.05,42.21 161.7,42.21 C160.395,42.21 159.375,41.94 158.64,41.43 C157.755,40.8 157.275,39.81 157.185,38.46 L158.805,38.46 C158.925,39.3 159.225,39.915 159.705,40.275 C160.14,40.605 160.8,40.77 161.7,40.77 C162.51,40.77 163.155,40.62 163.635,40.35 C164.115,40.08 164.355,39.705 164.355,39.225 C164.355,38.625 164.01,38.16 163.335,37.815 C163.095,37.695 162.39,37.455 161.205,37.095 C159.885,36.675 159.075,36.39 158.745,36.21 C157.92,35.715 157.515,34.995 157.515,34.065 C157.515,33.12 157.905,32.385 158.7,31.845 C159.45,31.335 160.395,31.08 161.535,31.08 Z M169.095,31.74 L169.095,34.245 L170.865,34.245 L170.865,35.565 L169.095,35.565 L169.095,40.065 C169.095,40.275 169.14,40.425 169.23,40.53 C169.32,40.62 169.455,40.68 169.65,40.68 L170.67,40.68 L170.67,42 L169.395,42 C168.735,42 168.24,41.82 167.94,41.475 C167.64,41.145 167.505,40.68 167.505,40.065 L167.505,35.565 L166.065,35.565 L166.065,34.245 L167.505,34.245 L167.505,32.4 L169.095,31.74 Z M175.11,34.035 C176.28,34.035 177.225,34.425 177.93,35.205 C178.62,35.97 178.98,36.945 178.98,38.13 C178.98,39.3 178.635,40.275 177.945,41.025 C177.225,41.805 176.28,42.21 175.11,42.21 C173.94,42.21 172.995,41.805 172.275,41.025 C171.585,40.275 171.24,39.3 171.24,38.13 C171.24,36.945 171.585,35.97 172.29,35.205 C172.995,34.425 173.94,34.035 175.11,34.035 Z M175.11,35.34 C174.375,35.34 173.805,35.625 173.4,36.21 C173.04,36.705 172.875,37.35 172.875,38.13 C172.875,38.91 173.04,39.54 173.4,40.035 C173.805,40.605 174.375,40.905 175.11,40.905 C175.845,40.905 176.415,40.605 176.835,40.035 C177.195,39.525 177.375,38.895 177.375,38.13 C177.375,37.35 177.195,36.705 176.835,36.21 C176.415,35.625 175.845,35.34 175.11,35.34 Z M183.495,34.035 C183.885,34.035 184.23,34.095 184.5,34.23 L184.5,35.82 C184.11,35.7 183.735,35.655 183.375,35.655 C182.895,35.655 182.46,35.85 182.085,36.24 C181.68,36.66 181.485,37.215 181.485,37.89 L181.485,42 L179.895,42 L179.895,34.245 L181.485,34.245 L181.485,35.415 C181.68,34.995 181.935,34.68 182.235,34.47 C182.595,34.17 183.015,34.035 183.495,34.035 Z M188.16,34.035 C189.42,34.035 190.395,34.455 191.055,35.325 C191.655,36.105 191.97,37.185 191.985,38.565 L186.105,38.565 C186.165,39.315 186.36,39.9 186.72,40.305 C187.08,40.695 187.575,40.905 188.205,40.905 C188.76,40.905 189.21,40.77 189.555,40.515 C189.825,40.305 190.05,39.96 190.26,39.51 L191.85,39.51 C191.67,40.23 191.325,40.845 190.785,41.325 C190.11,41.91 189.255,42.21 188.22,42.21 C187.08,42.21 186.165,41.85 185.505,41.145 C184.785,40.395 184.425,39.39 184.425,38.115 C184.425,36.96 184.755,36 185.445,35.22 C186.105,34.425 187.02,34.035 188.16,34.035 Z M188.205,35.34 C187.605,35.34 187.14,35.505 186.78,35.865 C186.45,36.21 186.225,36.705 186.135,37.365 L190.32,37.365 C190.17,36.015 189.465,35.34 188.205,35.34 Z" id="ChromeWebStore" fill="#FFFFFF" fill-rule="nonzero"></path>
        <g id="Untitled-1" transform="translate(10.000000, 5.000000)">
            <g id="Clipped" transform="translate(2.083333, 5.208333)">
                <mask id="mask-2" fill="white">
                    <use xlink:href="#path-1"></use>
                </mask>
                <g id="a"></g>
                <polygon id="路径" fill="#EEEEEE" fill-rule="nonzero" mask="url(#mask-2)" points="0 0 45.8333333 0 45.8333333 39.5833333 0 39.5833333"></polygon>
            </g>
            <g id="Clipped" transform="translate(2.083333, 5.208333)">
                <mask id="mask-4" fill="white">
                    <use xlink:href="#path-3"></use>
                </mask>
                <g id="a"></g>
                <path d="M28.125,4.16666667 L17.7083333,4.16666667 C16.5572917,4.16666667 15.625,5.09895833 15.625,6.25 C15.625,7.40104167 16.5572917,8.33333333 17.7083333,8.33333333 L28.125,8.33333333 C29.2760417,8.33333333 30.2083333,7.40104167 30.2083333,6.25 C30.2083333,5.09895833 29.2760417,4.16666667 28.125,4.16666667 Z" id="路径" fill="#FFFFFF" fill-rule="nonzero" mask="url(#mask-4)"></path>
            </g>
            <g id="Clipped" transform="translate(2.083333, 5.208333)">
                <mask id="mask-6" fill="white">
                    <use xlink:href="#path-5"></use>
                </mask>
                <g id="a"></g>
                <g id="编组" mask="url(#mask-6)">
                    <g transform="translate(3.125000, 16.666667)" id="Clipped">
                        <g>
                            <mask id="mask-8" fill="white">
                                <use xlink:href="#path-7"></use>
                            </mask>
                            <g id="c"></g>
                            <path d="M3.14322917,0 L3.14322917,24.2890625 L12,24.2890625 L19.7916667,10.7942708 L39.5833333,10.7942708 L39.5833333,0 L3.14322917,0 Z M3.14322917,0 L3.14322917,24.2890625 L12,24.2890625 L19.7916667,10.7942708 L39.5833333,10.7942708 L39.5833333,0 L3.14322917,0 Z" id="形状" fill="#DB4437" fill-rule="nonzero" mask="url(#mask-8)"></path>
                        </g>
                        <g>
                            <mask id="mask-10" fill="white">
                                <use xlink:href="#path-9"></use>
                            </mask>
                            <g id="c"></g>
                            <path d="M0,39.5833333 L18.8385417,39.5833333 L27.5833333,30.8385417 L27.5833333,24.2916667 L12,24.2890625 L0,3.70833333 L0,39.5833333 Z M0,39.5833333 L18.8385417,39.5833333 L27.5833333,30.8385417 L27.5833333,24.2916667 L12,24.2890625 L0,3.70833333 L0,39.5833333 Z" id="形状" fill="#0F9D58" fill-rule="nonzero" mask="url(#mask-10)"></path>
                        </g>
                        <g>
                            <mask id="mask-12" fill="white">
                                <use xlink:href="#path-11"></use>
                            </mask>
                            <g id="c"></g>
                            <path d="M19.7916667,10.7942708 L27.5833333,24.2890625 L18.8411458,39.5833333 L39.5833333,39.5833333 L39.5833333,10.7942708 L19.7916667,10.7942708 Z M19.7916667,10.7942708 L27.5833333,24.2890625 L18.8411458,39.5833333 L39.5833333,39.5833333 L39.5833333,10.7942708 L19.7916667,10.7942708 Z" id="形状" fill="#FFCD40" fill-rule="nonzero" mask="url(#mask-12)"></path>
                        </g>
                        <g>
                            <mask id="mask-14" fill="white">
                                <use xlink:href="#path-13"></use>
                            </mask>
                            <g id="c"></g>
                            <g id="编组" mask="url(#mask-14)" fill-rule="nonzero">
                                <g transform="translate(10.677083, 10.677083)" id="椭圆形">
                                    <circle fill="#F1F1F1" cx="9.11458333" cy="9.11458333" r="8.99739583"></circle>
                                    <circle fill="#4285F4" cx="9.11458333" cy="9.11458333" r="7.19791667"></circle>
                                </g>
                            </g>
                        </g>
                    </g>
                </g>
            </g>
            <g id="Clipped" transform="translate(2.083333, 5.208333)">
                <mask id="mask-16" fill="white">
                    <use xlink:href="#path-15"></use>
                </mask>
                <g id="a"></g>
                <polygon id="路径" fill-opacity="0.05" fill="#212121" fill-rule="nonzero" mask="url(#mask-16)" points="0 0 45.8333333 0 45.8333333 19.7916667 0 19.7916667"></polygon>
            </g>
            <polygon id="路径" fill-opacity="0.02" fill="#212121" fill-rule="nonzero" points="2.08333333 24.7395833 47.9166667 24.7395833 47.9166667 25 2.08333333 25"></polygon>
            <polygon id="路径" fill-opacity="0.05" fill="#FFFFFF" fill-rule="nonzero" points="2.08333333 25 47.9166667 25 47.9166667 25.2604167 2.08333333 25.2604167"></polygon>
            <path d="M30.2083333,13.5416667 L19.7916667,13.5416667 C18.6848958,13.5416667 17.78125,12.6770833 17.7161458,11.5885417 C17.7109375,11.6328125 17.7083333,11.6744792 17.7083333,11.71875 C17.7083333,12.8697917 18.640625,13.8020833 19.7916667,13.8020833 L30.2083333,13.8020833 C31.359375,13.8020833 32.2916667,12.8697917 32.2916667,11.71875 C32.2916667,11.6744792 32.2890625,11.6328125 32.2838542,11.5885417 C32.21875,12.6770833 31.3151042,13.5416667 30.2083333,13.5416667 Z M2.08333333,5.20833333 L2.08333333,5.46875 L47.9166667,5.46875 L47.9166667,5.20833333 L2.08333333,5.20833333 Z" id="形状" fill-opacity="0.02" fill="#212121" fill-rule="nonzero"></path>
            <path d="M19.7916667,9.375 L30.2083333,9.375 C31.3151042,9.375 32.21875,10.2395833 32.2838542,11.328125 C32.2864583,11.2838542 32.2916667,11.2421875 32.2916667,11.1979167 C32.2916667,10.046875 31.359375,9.11458333 30.2083333,9.11458333 L19.7916667,9.11458333 C18.640625,9.11458333 17.7083333,10.046875 17.7083333,11.1979167 C17.7083333,11.2421875 17.7109375,11.2838542 17.7161458,11.328125 C17.78125,10.2395833 18.6848958,9.375 19.7916667,9.375 Z M44.7916667,44.53125 L5.20833333,44.53125 C3.48958333,44.53125 2.08333333,43.125 2.08333333,41.40625 L2.08333333,41.6666667 C2.08333333,43.3854167 3.48958333,44.7916667 5.20833333,44.7916667 L44.7916667,44.7916667 C46.5104167,44.7916667 47.9166667,43.3854167 47.9166667,41.6666667 L47.9166667,41.40625 C47.9166667,43.125 46.5104167,44.53125 44.7916667,44.53125 Z" id="形状" fill-opacity="0.1" fill="#231F20" fill-rule="nonzero"></path>
            <path d="M2.08333333,5.20833333 L2.08333333,41.6666667 C2.08333333,43.3854167 3.48958333,44.7916667 5.20833333,44.7916667 L44.7916667,44.7916667 C46.5104167,44.7916667 47.9166667,43.3854167 47.9166667,41.6666667 L47.9166667,5.20833333 L2.08333333,5.20833333 Z M30.2083333,13.5416667 L19.7916667,13.5416667 C18.640625,13.5416667 17.7083333,12.609375 17.7083333,11.4583333 C17.7083333,10.3072917 18.640625,9.375 19.7916667,9.375 L30.2083333,9.375 C31.359375,9.375 32.2916667,10.3072917 32.2916667,11.4583333 C32.2916667,12.609375 31.359375,13.5416667 30.2083333,13.5416667 Z" id="形状" fill="url(#radialGradient-17)" fill-rule="nonzero"></path>
            <polygon id="路径" points="0 0 50 0 50 50 0 50"></polygon>
        </g>
    </g>
</svg>