<?xml version="1.0" encoding="UTF-8"?>
<svg width="201px" height="60px" viewBox="0 0 201 60" version="1.1" xmlns="http://www.w3.org/2000/svg" xmlns:xlink="http://www.w3.org/1999/xlink">
    <!-- Generator: Sketch 55.2 (78181) - https://sketchapp.com -->
    <title>chrome</title>
    <desc>Created with Sketch.</desc>
    <defs>
        <path d="M0,0 L0,36.4583333 C0,38.1770833 1.40625,39.5833333 3.125,39.5833333 L42.7083333,39.5833333 C44.4270833,39.5833333 45.8333333,38.1770833 45.8333333,36.4583333 L45.8333333,0 L0,0 Z M28.125,8.33333333 L17.7083333,8.33333333 C16.5572917,8.33333333 15.625,7.40104167 15.625,6.25 C15.625,5.09895833 16.5572917,4.16666667 17.7083333,4.16666667 L28.125,4.16666667 C29.2760417,4.16666667 30.2083333,5.09895833 30.2083333,6.25 C30.2083333,7.40104167 29.2760417,8.33333333 28.125,8.33333333 Z" id="path-1"></path>
        <path d="M0,0 L0,36.4583333 C0,38.1770833 1.40625,39.5833333 3.125,39.5833333 L42.7083333,39.5833333 C44.4270833,39.5833333 45.8333333,38.1770833 45.8333333,36.4583333 L45.8333333,0 L0,0 Z M28.125,8.33333333 L17.7083333,8.33333333 C16.5572917,8.33333333 15.625,7.40104167 15.625,6.25 C15.625,5.09895833 16.5572917,4.16666667 17.7083333,4.16666667 L28.125,4.16666667 C29.2760417,4.16666667 30.2083333,5.09895833 30.2083333,6.25 C30.2083333,7.40104167 29.2760417,8.33333333 28.125,8.33333333 Z" id="path-3"></path>
        <path d="M0,0 L0,36.4583333 C0,38.1770833 1.40625,39.5833333 3.125,39.5833333 L42.7083333,39.5833333 C44.4270833,39.5833333 45.8333333,38.1770833 45.8333333,36.4583333 L45.8333333,0 L0,0 Z M28.125,8.33333333 L17.7083333,8.33333333 C16.5572917,8.33333333 15.625,7.40104167 15.625,6.25 C15.625,5.09895833 16.5572917,4.16666667 17.7083333,4.16666667 L28.125,4.16666667 C29.2760417,4.16666667 30.2083333,5.09895833 30.2083333,6.25 C30.2083333,7.40104167 29.2760417,8.33333333 28.125,8.33333333 Z" id="path-5"></path>
        <circle id="path-7" cx="19.7916667" cy="19.7916667" r="19.7916667"></circle>
        <circle id="path-9" cx="19.7916667" cy="19.7916667" r="19.7916667"></circle>
        <circle id="path-11" cx="19.7916667" cy="19.7916667" r="19.7916667"></circle>
        <circle id="path-13" cx="19.7916667" cy="19.7916667" r="19.7916667"></circle>
        <path d="M0,0 L0,36.4583333 C0,38.1770833 1.40625,39.5833333 3.125,39.5833333 L42.7083333,39.5833333 C44.4270833,39.5833333 45.8333333,38.1770833 45.8333333,36.4583333 L45.8333333,0 L0,0 Z M28.125,8.33333333 L17.7083333,8.33333333 C16.5572917,8.33333333 15.625,7.40104167 15.625,6.25 C15.625,5.09895833 16.5572917,4.16666667 17.7083333,4.16666667 L28.125,4.16666667 C29.2760417,4.16666667 30.2083333,5.09895833 30.2083333,6.25 C30.2083333,7.40104167 29.2760417,8.33333333 28.125,8.33333333 Z" id="path-15"></path>
        <radialGradient cx="-0.282954545%" cy="-0.431578947%" fx="-0.282954545%" fy="-0.431578947%" r="149.734211%" gradientTransform="translate(-0.002830,-0.004316),scale(0.863636,1.000000),translate(0.002830,0.004316)" id="radialGradient-17">
            <stop stop-color="#FFFFFF" stop-opacity="0.1" offset="0%"></stop>
            <stop stop-color="#FFFFFF" stop-opacity="0" offset="100%"></stop>
        </radialGradient>
    </defs>
    <g id="chrome" stroke="none" stroke-width="1" fill="none" fill-rule="evenodd">
        <path d="M10.2555408,-4.14336123e-16 L190.744459,4.14336123e-16 C194.310534,-2.4074122e-16 195.603679,0.371302445 196.907383,1.06853082 C198.211087,1.76575919 199.234241,2.78891348 199.931469,4.09261719 C200.628698,5.39632089 201,6.68946584 201,10.2555408 L201,49.7444592 C201,53.3105342 200.628698,54.6036791 199.931469,55.9073828 C199.234241,57.2110865 198.211087,58.2342408 196.907383,58.9314692 C195.603679,59.6286976 194.310534,60 190.744459,60 L10.2555408,60 C6.68946584,60 5.39632089,59.6286976 4.09261719,58.9314692 C2.78891348,58.2342408 1.76575919,57.2110865 1.06853082,55.9073828 C0.371302445,54.6036791 1.60494146e-16,53.3105342 -2.76224082e-16,49.7444592 L2.76224082e-16,10.2555408 C-1.60494146e-16,6.68946584 0.371302445,5.39632089 1.06853082,4.09261719 C1.76575919,2.78891348 2.78891348,1.76575919 4.09261719,1.06853082 C5.39632089,0.371302445 6.68946584,2.4074122e-16 10.2555408,-4.14336123e-16 Z" id="矩形" fill="#109AD6"></path>
        <path d="M69.846,17.432 L70.986,17.432 L74.358,26 L73.29,26 L72.378,23.6 L68.442,23.6 L67.53,26 L66.474,26 L69.846,17.432 Z M68.754,22.772 L72.066,22.772 L70.446,18.488 L70.398,18.488 L68.754,22.772 Z M73.618,19.796 L74.674,19.796 L76.45,24.8 L78.226,19.796 L79.282,19.796 L76.93,26 L75.958,26 L73.618,19.796 Z M81.986,19.628 C82.874,19.628 83.522,19.856 83.954,20.324 C84.314,20.732 84.506,21.296 84.506,22.016 L84.506,26 L83.606,26 L83.606,24.956 C83.366,25.292 83.042,25.568 82.658,25.784 C82.202,26.036 81.686,26.168 81.11,26.168 C80.486,26.168 79.994,26.012 79.622,25.7 C79.238,25.376 79.046,24.956 79.046,24.452 C79.046,23.744 79.322,23.216 79.898,22.856 C80.402,22.52 81.122,22.34 82.058,22.328 L83.546,22.304 L83.546,21.98 C83.546,20.936 83.006,20.42 81.926,20.42 C81.47,20.42 81.098,20.504 80.81,20.696 C80.486,20.888 80.282,21.188 80.186,21.584 L79.238,21.512 C79.37,20.864 79.694,20.372 80.198,20.06 C80.654,19.772 81.242,19.628 81.986,19.628 Z M83.546,23.024 L82.118,23.048 C80.726,23.072 80.03,23.528 80.03,24.428 C80.03,24.716 80.138,24.944 80.378,25.136 C80.618,25.316 80.93,25.412 81.314,25.412 C81.902,25.412 82.418,25.22 82.874,24.836 C83.318,24.464 83.546,24.032 83.546,23.552 L83.546,23.024 Z M85.986,17.456 C86.19,17.456 86.358,17.516 86.502,17.66 C86.646,17.78 86.718,17.948 86.718,18.164 C86.718,18.368 86.646,18.536 86.502,18.68 C86.358,18.812 86.19,18.884 85.986,18.884 C85.782,18.884 85.614,18.812 85.47,18.68 C85.326,18.536 85.266,18.368 85.266,18.164 C85.266,17.948 85.326,17.78 85.47,17.66 C85.614,17.516 85.782,17.456 85.986,17.456 Z M85.506,19.796 L86.466,19.796 L86.466,26 L85.506,26 L85.506,19.796 Z M87.658,17.264 L88.606,17.264 L88.606,26 L87.658,26 L87.658,17.264 Z M92.186,19.628 C93.074,19.628 93.722,19.856 94.154,20.324 C94.514,20.732 94.706,21.296 94.706,22.016 L94.706,26 L93.806,26 L93.806,24.956 C93.566,25.292 93.242,25.568 92.858,25.784 C92.402,26.036 91.886,26.168 91.31,26.168 C90.686,26.168 90.194,26.012 89.822,25.7 C89.438,25.376 89.246,24.956 89.246,24.452 C89.246,23.744 89.522,23.216 90.098,22.856 C90.602,22.52 91.322,22.34 92.258,22.328 L93.746,22.304 L93.746,21.98 C93.746,20.936 93.206,20.42 92.126,20.42 C91.67,20.42 91.298,20.504 91.01,20.696 C90.686,20.888 90.482,21.188 90.386,21.584 L89.438,21.512 C89.57,20.864 89.894,20.372 90.398,20.06 C90.854,19.772 91.442,19.628 92.186,19.628 Z M93.746,23.024 L92.318,23.048 C90.926,23.072 90.23,23.528 90.23,24.428 C90.23,24.716 90.338,24.944 90.578,25.136 C90.818,25.316 91.13,25.412 91.514,25.412 C92.102,25.412 92.618,25.22 93.074,24.836 C93.518,24.464 93.746,24.032 93.746,23.552 L93.746,23.024 Z M95.394,17.264 L96.354,17.264 L96.354,20.936 C96.834,20.06 97.518,19.628 98.406,19.628 C99.282,19.628 99.978,19.952 100.482,20.624 C100.938,21.224 101.178,21.968 101.178,22.88 C101.178,23.816 100.938,24.584 100.482,25.184 C99.966,25.832 99.258,26.168 98.358,26.168 C97.398,26.168 96.714,25.772 96.294,24.98 L96.294,26 L95.394,26 L95.394,17.264 Z M98.202,20.42 C97.638,20.42 97.182,20.636 96.846,21.092 C96.486,21.536 96.318,22.124 96.318,22.844 L96.318,22.964 C96.318,23.66 96.474,24.224 96.786,24.656 C97.122,25.136 97.614,25.376 98.238,25.376 C98.91,25.376 99.414,25.124 99.75,24.644 C100.038,24.212 100.194,23.624 100.194,22.88 C100.194,22.136 100.038,21.56 99.726,21.14 C99.378,20.66 98.874,20.42 98.202,20.42 Z M101.818,17.264 L102.766,17.264 L102.766,26 L101.818,26 L101.818,17.264 Z M106.202,19.628 C107.198,19.628 107.954,19.964 108.458,20.636 C108.914,21.236 109.154,22.088 109.178,23.168 L104.282,23.168 C104.33,23.864 104.51,24.404 104.846,24.788 C105.182,25.172 105.65,25.364 106.238,25.364 C106.742,25.364 107.162,25.232 107.474,24.98 C107.738,24.764 107.942,24.44 108.098,24.008 L109.058,24.008 C108.914,24.608 108.638,25.088 108.218,25.472 C107.702,25.928 107.042,26.168 106.238,26.168 C105.35,26.168 104.63,25.868 104.102,25.292 C103.55,24.692 103.286,23.9 103.286,22.892 C103.286,21.98 103.538,21.212 104.066,20.6 C104.594,19.952 105.302,19.628 106.202,19.628 Z M106.226,20.432 C105.674,20.432 105.23,20.612 104.894,20.972 C104.558,21.332 104.366,21.812 104.306,22.424 L108.182,22.424 C108.062,21.092 107.402,20.432 106.226,20.432 Z M113.494,17.456 C113.698,17.456 113.866,17.516 114.01,17.66 C114.154,17.78 114.226,17.948 114.226,18.164 C114.226,18.368 114.154,18.536 114.01,18.68 C113.866,18.812 113.698,18.884 113.494,18.884 C113.29,18.884 113.122,18.812 112.978,18.68 C112.834,18.536 112.774,18.368 112.774,18.164 C112.774,17.948 112.834,17.78 112.978,17.66 C113.122,17.516 113.29,17.456 113.494,17.456 Z M113.014,19.796 L113.974,19.796 L113.974,26 L113.014,26 L113.014,19.796 Z M117.878,19.628 C119.414,19.628 120.194,20.48 120.194,22.184 L120.194,26 L119.234,26 L119.234,22.256 C119.234,21.044 118.682,20.444 117.602,20.444 C117.17,20.444 116.798,20.6 116.486,20.912 C116.15,21.248 115.97,21.692 115.934,22.256 L115.934,26 L114.974,26 L114.974,19.796 L115.934,19.796 L115.934,20.708 C116.15,20.36 116.426,20.096 116.762,19.916 C117.098,19.724 117.47,19.628 117.878,19.628 Z M125.734,17.792 L125.734,19.796 L127.27,19.796 L127.27,20.6 L125.734,20.6 L125.734,24.548 C125.734,24.776 125.77,24.944 125.866,25.04 C125.95,25.136 126.106,25.196 126.322,25.196 L127.114,25.196 L127.114,26 L126.178,26 C125.674,26 125.302,25.868 125.086,25.604 C124.882,25.364 124.786,25.016 124.786,24.548 L124.786,20.6 L123.538,20.6 L123.538,19.796 L124.786,19.796 L124.786,18.188 L125.734,17.792 Z M127.538,17.264 L128.498,17.264 L128.498,20.816 C128.714,20.42 129.002,20.12 129.362,19.916 C129.698,19.724 130.07,19.628 130.49,19.628 C131.21,19.628 131.774,19.832 132.158,20.264 C132.542,20.684 132.734,21.296 132.734,22.088 L132.734,26 L131.774,26 L131.774,22.232 C131.774,21.656 131.63,21.212 131.366,20.9 C131.078,20.588 130.682,20.432 130.166,20.432 C129.686,20.432 129.29,20.624 128.978,21.008 C128.654,21.392 128.498,21.884 128.498,22.46 L128.498,26 L127.538,26 L127.538,17.264 Z M135.966,19.628 C136.962,19.628 137.718,19.964 138.222,20.636 C138.678,21.236 138.918,22.088 138.942,23.168 L134.046,23.168 C134.094,23.864 134.274,24.404 134.61,24.788 C134.946,25.172 135.414,25.364 136.002,25.364 C136.506,25.364 136.926,25.232 137.238,24.98 C137.502,24.764 137.706,24.44 137.862,24.008 L138.822,24.008 C138.678,24.608 138.402,25.088 137.982,25.472 C137.466,25.928 136.806,26.168 136.002,26.168 C135.114,26.168 134.394,25.868 133.866,25.292 C133.314,24.692 133.05,23.9 133.05,22.892 C133.05,21.98 133.302,21.212 133.83,20.6 C134.358,19.952 135.066,19.628 135.966,19.628 Z M135.99,20.432 C135.438,20.432 134.994,20.612 134.658,20.972 C134.322,21.332 134.13,21.812 134.07,22.424 L137.946,22.424 C137.826,21.092 137.166,20.432 135.99,20.432 Z" id="Availableinthe" fill="#FFFFFF" fill-rule="nonzero"></path>
        <path d="M71.8825,31.08 C73.1275,31.08 74.1625,31.395 74.9725,32.055 C75.7525,32.685 76.2325,33.555 76.3975,34.635 L74.8075,34.635 C74.6275,33.915 74.2825,33.375 73.7725,33.03 C73.2625,32.685 72.6325,32.52 71.8525,32.52 C70.6975,32.52 69.8275,32.91 69.2425,33.705 C68.6875,34.425 68.4175,35.415 68.4175,36.66 C68.4175,37.95 68.6875,38.94 69.2275,39.645 C69.7975,40.395 70.6825,40.77 71.8825,40.77 C72.6625,40.77 73.3225,40.575 73.8325,40.185 C74.3725,39.765 74.7475,39.135 74.9575,38.295 L76.5475,38.295 C76.3075,39.54 75.7525,40.515 74.8675,41.22 C74.0425,41.88 73.0525,42.21 71.8975,42.21 C70.1425,42.21 68.8225,41.64 67.9375,40.53 C67.1575,39.57 66.7825,38.28 66.7825,36.66 C66.7825,35.07 67.1725,33.78 67.9825,32.775 C68.8825,31.635 70.1725,31.08 71.8825,31.08 Z M77.2475,31.08 L78.8375,31.08 L78.8375,35.34 C79.1225,34.89 79.4825,34.545 79.9175,34.335 C80.3075,34.125 80.7425,34.035 81.2375,34.035 C82.1675,34.035 82.8725,34.305 83.3525,34.86 C83.8025,35.385 84.0275,36.165 84.0275,37.185 L84.0275,42 L82.4375,42 L82.4375,37.455 C82.4375,36.765 82.2875,36.255 82.0175,35.895 C81.7175,35.52 81.2525,35.34 80.6525,35.34 C80.1125,35.34 79.6775,35.55 79.3475,35.985 C79.0025,36.42 78.8375,36.975 78.8375,37.65 L78.8375,42 L77.2475,42 L77.2475,31.08 Z M88.6275,34.035 C89.0175,34.035 89.3625,34.095 89.6325,34.23 L89.6325,35.82 C89.2425,35.7 88.8675,35.655 88.5075,35.655 C88.0275,35.655 87.5925,35.85 87.2175,36.24 C86.8125,36.66 86.6175,37.215 86.6175,37.89 L86.6175,42 L85.0275,42 L85.0275,34.245 L86.6175,34.245 L86.6175,35.415 C86.8125,34.995 87.0675,34.68 87.3675,34.47 C87.7275,34.17 88.1475,34.035 88.6275,34.035 Z M93.3775,34.035 C94.5475,34.035 95.4925,34.425 96.1975,35.205 C96.8875,35.97 97.2475,36.945 97.2475,38.13 C97.2475,39.3 96.9025,40.275 96.2125,41.025 C95.4925,41.805 94.5475,42.21 93.3775,42.21 C92.2075,42.21 91.2625,41.805 90.5425,41.025 C89.8525,40.275 89.5075,39.3 89.5075,38.13 C89.5075,36.945 89.8525,35.97 90.5575,35.205 C91.2625,34.425 92.2075,34.035 93.3775,34.035 Z M93.3775,35.34 C92.6425,35.34 92.0725,35.625 91.6675,36.21 C91.3075,36.705 91.1425,37.35 91.1425,38.13 C91.1425,38.91 91.3075,39.54 91.6675,40.035 C92.0725,40.605 92.6425,40.905 93.3775,40.905 C94.1125,40.905 94.6825,40.605 95.1025,40.035 C95.4625,39.525 95.6425,38.895 95.6425,38.13 C95.6425,37.35 95.4625,36.705 95.1025,36.21 C94.6825,35.625 94.1125,35.34 93.3775,35.34 Z M101.6825,34.035 C102.8225,34.035 103.6475,34.47 104.1275,35.34 C104.4725,34.86 104.8475,34.515 105.2375,34.32 C105.5975,34.125 106.0325,34.035 106.5575,34.035 C107.3525,34.035 108.0125,34.29 108.5375,34.83 C109.0475,35.355 109.3175,36.045 109.3175,36.915 L109.3175,42 L107.7275,42 L107.7275,37.185 C107.7275,36.555 107.5925,36.09 107.3225,35.805 C107.0525,35.505 106.6025,35.37 106.0025,35.37 C105.5525,35.37 105.1925,35.535 104.8925,35.865 C104.5925,36.195 104.4425,36.66 104.4425,37.23 L104.4425,42 L102.8525,42 L102.8525,37.2 C102.8525,35.97 102.3125,35.37 101.2625,35.37 C100.7525,35.37 100.3325,35.565 100.0325,35.955 C99.7025,36.33 99.5525,36.795 99.5525,37.335 L99.5525,42 L97.9625,42 L97.9625,34.245 L99.5525,34.245 L99.5525,35.1 C100.1825,34.38 100.9025,34.035 101.6825,34.035 Z M113.6025,34.035 C114.8625,34.035 115.8375,34.455 116.4975,35.325 C117.0975,36.105 117.4125,37.185 117.4275,38.565 L111.5475,38.565 C111.6075,39.315 111.8025,39.9 112.1625,40.305 C112.5225,40.695 113.0175,40.905 113.6475,40.905 C114.2025,40.905 114.6525,40.77 114.9975,40.515 C115.2675,40.305 115.4925,39.96 115.7025,39.51 L117.2925,39.51 C117.1125,40.23 116.7675,40.845 116.2275,41.325 C115.5525,41.91 114.6975,42.21 113.6625,42.21 C112.5225,42.21 111.6075,41.85 110.9475,41.145 C110.2275,40.395 109.8675,39.39 109.8675,38.115 C109.8675,36.96 110.1975,36 110.8875,35.22 C111.5475,34.425 112.4625,34.035 113.6025,34.035 Z M113.6475,35.34 C113.0475,35.34 112.5825,35.505 112.2225,35.865 C111.8925,36.21 111.6675,36.705 111.5775,37.365 L115.7625,37.365 C115.6125,36.015 114.9075,35.34 113.6475,35.34 Z M121.3475,31.29 L123.1925,31.29 L125.2775,39.63 L125.3375,39.63 L127.5275,31.29 L129.2375,31.29 L131.4275,39.63 L131.4875,39.63 L133.5725,31.29 L135.4175,31.29 L132.3275,42 L130.5875,42 L128.4125,33.735 L128.3525,33.735 L126.1775,42 L124.4225,42 L121.3475,31.29 Z M138.8775,34.035 C140.1375,34.035 141.1125,34.455 141.7725,35.325 C142.3725,36.105 142.6875,37.185 142.7025,38.565 L136.8225,38.565 C136.8825,39.315 137.0775,39.9 137.4375,40.305 C137.7975,40.695 138.2925,40.905 138.9225,40.905 C139.4775,40.905 139.9275,40.77 140.2725,40.515 C140.5425,40.305 140.7675,39.96 140.9775,39.51 L142.5675,39.51 C142.3875,40.23 142.0425,40.845 141.5025,41.325 C140.8275,41.91 139.9725,42.21 138.9375,42.21 C137.7975,42.21 136.8825,41.85 136.2225,41.145 C135.5025,40.395 135.1425,39.39 135.1425,38.115 C135.1425,36.96 135.4725,36 136.1625,35.22 C136.8225,34.425 137.7375,34.035 138.8775,34.035 Z M138.9225,35.34 C138.3225,35.34 137.8575,35.505 137.4975,35.865 C137.1675,36.21 136.9425,36.705 136.8525,37.365 L141.0375,37.365 C140.8875,36.015 140.1825,35.34 138.9225,35.34 Z M143.2525,31.08 L144.8425,31.08 L144.8425,35.4 C145.4725,34.485 146.2525,34.035 147.2125,34.035 C148.3225,34.035 149.1925,34.44 149.8375,35.25 C150.4225,36 150.7225,36.945 150.7225,38.085 C150.7225,39.27 150.4225,40.245 149.8225,40.995 C149.1625,41.805 148.2775,42.21 147.1375,42.21 C146.0725,42.21 145.2775,41.82 144.7375,41.07 L144.7375,42 L143.2525,42 L143.2525,31.08 Z M146.8525,35.325 C146.2525,35.325 145.7725,35.55 145.4125,36.03 C144.9925,36.54 144.7975,37.215 144.7975,38.055 L144.7975,38.19 C144.7975,38.97 144.9625,39.6 145.2925,40.095 C145.6675,40.635 146.2075,40.92 146.8975,40.92 C147.6775,40.92 148.2475,40.635 148.6225,40.08 C148.9225,39.6 149.0875,38.94 149.0875,38.085 C149.0875,37.23 148.9225,36.57 148.5925,36.12 C148.2175,35.58 147.6325,35.325 146.8525,35.325 Z M159.5175,31.08 C160.7625,31.08 161.7375,31.335 162.4425,31.875 C163.1925,32.43 163.6125,33.285 163.7175,34.455 L162.0975,34.455 C161.9475,33.765 161.6775,33.255 161.2575,32.955 C160.8375,32.64 160.2375,32.49 159.4275,32.49 C158.7225,32.49 158.1825,32.595 157.8075,32.805 C157.3425,33.045 157.1175,33.435 157.1175,33.975 C157.1175,34.455 157.3725,34.83 157.9125,35.115 C158.1525,35.25 158.7675,35.475 159.7725,35.775 C161.2125,36.225 162.1575,36.57 162.5775,36.825 C163.4925,37.38 163.9575,38.145 163.9575,39.135 C163.9575,40.095 163.5825,40.845 162.8325,41.4 C162.0825,41.94 161.0325,42.21 159.6825,42.21 C158.3775,42.21 157.3575,41.94 156.6225,41.43 C155.7375,40.8 155.2575,39.81 155.1675,38.46 L156.7875,38.46 C156.9075,39.3 157.2075,39.915 157.6875,40.275 C158.1225,40.605 158.7825,40.77 159.6825,40.77 C160.4925,40.77 161.1375,40.62 161.6175,40.35 C162.0975,40.08 162.3375,39.705 162.3375,39.225 C162.3375,38.625 161.9925,38.16 161.3175,37.815 C161.0775,37.695 160.3725,37.455 159.1875,37.095 C157.8675,36.675 157.0575,36.39 156.7275,36.21 C155.9025,35.715 155.4975,34.995 155.4975,34.065 C155.4975,33.12 155.8875,32.385 156.6825,31.845 C157.4325,31.335 158.3775,31.08 159.5175,31.08 Z M166.8775,31.74 L166.8775,34.245 L168.6475,34.245 L168.6475,35.565 L166.8775,35.565 L166.8775,40.065 C166.8775,40.275 166.9225,40.425 167.0125,40.53 C167.1025,40.62 167.2375,40.68 167.4325,40.68 L168.4525,40.68 L168.4525,42 L167.1775,42 C166.5175,42 166.0225,41.82 165.7225,41.475 C165.4225,41.145 165.2875,40.68 165.2875,40.065 L165.2875,35.565 L163.8475,35.565 L163.8475,34.245 L165.2875,34.245 L165.2875,32.4 L166.8775,31.74 Z M172.6925,34.035 C173.8625,34.035 174.8075,34.425 175.5125,35.205 C176.2025,35.97 176.5625,36.945 176.5625,38.13 C176.5625,39.3 176.2175,40.275 175.5275,41.025 C174.8075,41.805 173.8625,42.21 172.6925,42.21 C171.5225,42.21 170.5775,41.805 169.8575,41.025 C169.1675,40.275 168.8225,39.3 168.8225,38.13 C168.8225,36.945 169.1675,35.97 169.8725,35.205 C170.5775,34.425 171.5225,34.035 172.6925,34.035 Z M172.6925,35.34 C171.9575,35.34 171.3875,35.625 170.9825,36.21 C170.6225,36.705 170.4575,37.35 170.4575,38.13 C170.4575,38.91 170.6225,39.54 170.9825,40.035 C171.3875,40.605 171.9575,40.905 172.6925,40.905 C173.4275,40.905 173.9975,40.605 174.4175,40.035 C174.7775,39.525 174.9575,38.895 174.9575,38.13 C174.9575,37.35 174.7775,36.705 174.4175,36.21 C173.9975,35.625 173.4275,35.34 172.6925,35.34 Z M180.8775,34.035 C181.2675,34.035 181.6125,34.095 181.8825,34.23 L181.8825,35.82 C181.4925,35.7 181.1175,35.655 180.7575,35.655 C180.2775,35.655 179.8425,35.85 179.4675,36.24 C179.0625,36.66 178.8675,37.215 178.8675,37.89 L178.8675,42 L177.2775,42 L177.2775,34.245 L178.8675,34.245 L178.8675,35.415 C179.0625,34.995 179.3175,34.68 179.6175,34.47 C179.9775,34.17 180.3975,34.035 180.8775,34.035 Z M185.3425,34.035 C186.6025,34.035 187.5775,34.455 188.2375,35.325 C188.8375,36.105 189.1525,37.185 189.1675,38.565 L183.2875,38.565 C183.3475,39.315 183.5425,39.9 183.9025,40.305 C184.2625,40.695 184.7575,40.905 185.3875,40.905 C185.9425,40.905 186.3925,40.77 186.7375,40.515 C187.0075,40.305 187.2325,39.96 187.4425,39.51 L189.0325,39.51 C188.8525,40.23 188.5075,40.845 187.9675,41.325 C187.2925,41.91 186.4375,42.21 185.4025,42.21 C184.2625,42.21 183.3475,41.85 182.6875,41.145 C181.9675,40.395 181.6075,39.39 181.6075,38.115 C181.6075,36.96 181.9375,36 182.6275,35.22 C183.2875,34.425 184.2025,34.035 185.3425,34.035 Z M185.3875,35.34 C184.7875,35.34 184.3225,35.505 183.9625,35.865 C183.6325,36.21 183.4075,36.705 183.3175,37.365 L187.5025,37.365 C187.3525,36.015 186.6475,35.34 185.3875,35.34 Z" id="ChromeWebStore" fill="#FFFFFF" fill-rule="nonzero"></path>
        <g id="Untitled-1" transform="translate(10.000000, 5.000000)">
            <g id="Clipped" transform="translate(2.083333, 5.208333)">
                <mask id="mask-2" fill="white">
                    <use xlink:href="#path-1"></use>
                </mask>
                <g id="a"></g>
                <polygon id="路径" fill="#EEEEEE" fill-rule="nonzero" mask="url(#mask-2)" points="0 0 45.8333333 0 45.8333333 39.5833333 0 39.5833333"></polygon>
            </g>
            <g id="Clipped" transform="translate(2.083333, 5.208333)">
                <mask id="mask-4" fill="white">
                    <use xlink:href="#path-3"></use>
                </mask>
                <g id="a"></g>
                <path d="M28.125,4.16666667 L17.7083333,4.16666667 C16.5572917,4.16666667 15.625,5.09895833 15.625,6.25 C15.625,7.40104167 16.5572917,8.33333333 17.7083333,8.33333333 L28.125,8.33333333 C29.2760417,8.33333333 30.2083333,7.40104167 30.2083333,6.25 C30.2083333,5.09895833 29.2760417,4.16666667 28.125,4.16666667 Z" id="路径" fill="#FFFFFF" fill-rule="nonzero" mask="url(#mask-4)"></path>
            </g>
            <g id="Clipped" transform="translate(2.083333, 5.208333)">
                <mask id="mask-6" fill="white">
                    <use xlink:href="#path-5"></use>
                </mask>
                <g id="a"></g>
                <g id="编组" mask="url(#mask-6)">
                    <g transform="translate(3.125000, 16.666667)" id="Clipped">
                        <g>
                            <mask id="mask-8" fill="white">
                                <use xlink:href="#path-7"></use>
                            </mask>
                            <g id="c"></g>
                            <path d="M3.14322917,0 L3.14322917,24.2890625 L12,24.2890625 L19.7916667,10.7942708 L39.5833333,10.7942708 L39.5833333,0 L3.14322917,0 Z M3.14322917,0 L3.14322917,24.2890625 L12,24.2890625 L19.7916667,10.7942708 L39.5833333,10.7942708 L39.5833333,0 L3.14322917,0 Z" id="形状" fill="#DB4437" fill-rule="nonzero" mask="url(#mask-8)"></path>
                        </g>
                        <g>
                            <mask id="mask-10" fill="white">
                                <use xlink:href="#path-9"></use>
                            </mask>
                            <g id="c"></g>
                            <path d="M0,39.5833333 L18.8385417,39.5833333 L27.5833333,30.8385417 L27.5833333,24.2916667 L12,24.2890625 L0,3.70833333 L0,39.5833333 Z M0,39.5833333 L18.8385417,39.5833333 L27.5833333,30.8385417 L27.5833333,24.2916667 L12,24.2890625 L0,3.70833333 L0,39.5833333 Z" id="形状" fill="#0F9D58" fill-rule="nonzero" mask="url(#mask-10)"></path>
                        </g>
                        <g>
                            <mask id="mask-12" fill="white">
                                <use xlink:href="#path-11"></use>
                            </mask>
                            <g id="c"></g>
                            <path d="M19.7916667,10.7942708 L27.5833333,24.2890625 L18.8411458,39.5833333 L39.5833333,39.5833333 L39.5833333,10.7942708 L19.7916667,10.7942708 Z M19.7916667,10.7942708 L27.5833333,24.2890625 L18.8411458,39.5833333 L39.5833333,39.5833333 L39.5833333,10.7942708 L19.7916667,10.7942708 Z" id="形状" fill="#FFCD40" fill-rule="nonzero" mask="url(#mask-12)"></path>
                        </g>
                        <g>
                            <mask id="mask-14" fill="white">
                                <use xlink:href="#path-13"></use>
                            </mask>
                            <g id="c"></g>
                            <g id="编组" mask="url(#mask-14)" fill-rule="nonzero">
                                <g transform="translate(10.677083, 10.677083)" id="椭圆形">
                                    <circle fill="#F1F1F1" cx="9.11458333" cy="9.11458333" r="8.99739583"></circle>
                                    <circle fill="#4285F4" cx="9.11458333" cy="9.11458333" r="7.19791667"></circle>
                                </g>
                            </g>
                        </g>
                    </g>
                </g>
            </g>
            <g id="Clipped" transform="translate(2.083333, 5.208333)">
                <mask id="mask-16" fill="white">
                    <use xlink:href="#path-15"></use>
                </mask>
                <g id="a"></g>
                <polygon id="路径" fill-opacity="0.05" fill="#212121" fill-rule="nonzero" mask="url(#mask-16)" points="0 0 45.8333333 0 45.8333333 19.7916667 0 19.7916667"></polygon>
            </g>
            <polygon id="路径" fill-opacity="0.02" fill="#212121" fill-rule="nonzero" points="2.08333333 24.7395833 47.9166667 24.7395833 47.9166667 25 2.08333333 25"></polygon>
            <polygon id="路径" fill-opacity="0.05" fill="#FFFFFF" fill-rule="nonzero" points="2.08333333 25 47.9166667 25 47.9166667 25.2604167 2.08333333 25.2604167"></polygon>
            <path d="M30.2083333,13.5416667 L19.7916667,13.5416667 C18.6848958,13.5416667 17.78125,12.6770833 17.7161458,11.5885417 C17.7109375,11.6328125 17.7083333,11.6744792 17.7083333,11.71875 C17.7083333,12.8697917 18.640625,13.8020833 19.7916667,13.8020833 L30.2083333,13.8020833 C31.359375,13.8020833 32.2916667,12.8697917 32.2916667,11.71875 C32.2916667,11.6744792 32.2890625,11.6328125 32.2838542,11.5885417 C32.21875,12.6770833 31.3151042,13.5416667 30.2083333,13.5416667 Z M2.08333333,5.20833333 L2.08333333,5.46875 L47.9166667,5.46875 L47.9166667,5.20833333 L2.08333333,5.20833333 Z" id="形状" fill-opacity="0.02" fill="#212121" fill-rule="nonzero"></path>
            <path d="M19.7916667,9.375 L30.2083333,9.375 C31.3151042,9.375 32.21875,10.2395833 32.2838542,11.328125 C32.2864583,11.2838542 32.2916667,11.2421875 32.2916667,11.1979167 C32.2916667,10.046875 31.359375,9.11458333 30.2083333,9.11458333 L19.7916667,9.11458333 C18.640625,9.11458333 17.7083333,10.046875 17.7083333,11.1979167 C17.7083333,11.2421875 17.7109375,11.2838542 17.7161458,11.328125 C17.78125,10.2395833 18.6848958,9.375 19.7916667,9.375 Z M44.7916667,44.53125 L5.20833333,44.53125 C3.48958333,44.53125 2.08333333,43.125 2.08333333,41.40625 L2.08333333,41.6666667 C2.08333333,43.3854167 3.48958333,44.7916667 5.20833333,44.7916667 L44.7916667,44.7916667 C46.5104167,44.7916667 47.9166667,43.3854167 47.9166667,41.6666667 L47.9166667,41.40625 C47.9166667,43.125 46.5104167,44.53125 44.7916667,44.53125 Z" id="形状" fill-opacity="0.1" fill="#231F20" fill-rule="nonzero"></path>
            <path d="M2.08333333,5.20833333 L2.08333333,41.6666667 C2.08333333,43.3854167 3.48958333,44.7916667 5.20833333,44.7916667 L44.7916667,44.7916667 C46.5104167,44.7916667 47.9166667,43.3854167 47.9166667,41.6666667 L47.9166667,5.20833333 L2.08333333,5.20833333 Z M30.2083333,13.5416667 L19.7916667,13.5416667 C18.640625,13.5416667 17.7083333,12.609375 17.7083333,11.4583333 C17.7083333,10.3072917 18.640625,9.375 19.7916667,9.375 L30.2083333,9.375 C31.359375,9.375 32.2916667,10.3072917 32.2916667,11.4583333 C32.2916667,12.609375 31.359375,13.5416667 30.2083333,13.5416667 Z" id="形状" fill="url(#radialGradient-17)" fill-rule="nonzero"></path>
            <polygon id="路径" points="0 0 50 0 50 50 0 50"></polygon>
        </g>
    </g>
</svg>