<?xml version="1.0" encoding="UTF-8"?>
<svg width="201px" height="60px" viewBox="0 0 201 60" version="1.1" xmlns="http://www.w3.org/2000/svg" xmlns:xlink="http://www.w3.org/1999/xlink">
    <!-- Generator: Sketch 55.2 (78181) - https://sketchapp.com -->
    <title>firefox</title>
    <desc>Created with Sketch.</desc>
    <defs>
        <radialGradient cx="86.8496638%" cy="30.0272996%" fx="86.8496638%" fy="30.0272996%" r="184.024457%" gradientTransform="translate(0.868497,0.300273),scale(1.000000,0.362882),rotate(2.554810),translate(-0.868497,-0.300273)" id="radialGradient-1">
            <stop stop-color="#FFEA00" offset="4.5%"></stop>
            <stop stop-color="#FFDE00" offset="12%"></stop>
            <stop stop-color="#FFBF00" offset="25.4%"></stop>
            <stop stop-color="#FF8E00" offset="42.9%"></stop>
            <stop stop-color="#FF272D" offset="76.9%"></stop>
            <stop stop-color="#E0255A" offset="87.2%"></stop>
            <stop stop-color="#CC2477" offset="95.3%"></stop>
            <stop stop-color="#C42482" offset="100%"></stop>
        </radialGradient>
        <radialGradient cx="70.8275826%" cy="12.3927561%" fx="70.8275826%" fy="12.3927561%" r="109.233694%" gradientTransform="translate(0.708276,0.123928),scale(1.000000,0.994695),translate(-0.708276,-0.123928)" id="radialGradient-2">
            <stop stop-color="#00CCDA" offset="0%"></stop>
            <stop stop-color="#0083FF" offset="22%"></stop>
            <stop stop-color="#007AF9" offset="26.1%"></stop>
            <stop stop-color="#0060E8" offset="33%"></stop>
            <stop stop-color="#005FE7" offset="33.3%"></stop>
            <stop stop-color="#2639AD" offset="43.8%"></stop>
            <stop stop-color="#401E84" offset="52.2%"></stop>
            <stop stop-color="#4A1475" offset="56.6%"></stop>
        </radialGradient>
        <linearGradient x1="56.5177405%" y1="75.2198361%" x2="36.8086422%" y2="6.80511416%" id="linearGradient-3">
            <stop stop-color="#000F43" stop-opacity="0.4" offset="0%"></stop>
            <stop stop-color="#001962" stop-opacity="0.173" offset="48.5%"></stop>
            <stop stop-color="#002079" stop-opacity="0" offset="100%"></stop>
        </linearGradient>
        <radialGradient cx="147.72731%" cy="-21.6638402%" fx="147.72731%" fy="-21.6638402%" r="171.815161%" gradientTransform="translate(1.477273,-0.216638),scale(0.923323,1.000000),rotate(5.761779),translate(-1.477273,0.216638)" id="radialGradient-4">
            <stop stop-color="#FFEA00" offset="0.3%"></stop>
            <stop stop-color="#FF272D" offset="49.7%"></stop>
            <stop stop-color="#C42482" offset="100%"></stop>
        </radialGradient>
        <radialGradient cx="135.976%" cy="-52.1307456%" fx="135.976%" fy="-52.1307456%" r="453.896488%" gradientTransform="translate(1.359760,-0.521307),scale(1.000000,0.541483),rotate(5.761779),translate(-1.359760,0.521307)" id="radialGradient-5">
            <stop stop-color="#FFE900" offset="0.3%"></stop>
            <stop stop-color="#FFAF0E" offset="15.7%"></stop>
            <stop stop-color="#FF7A1B" offset="31.6%"></stop>
            <stop stop-color="#FF4E26" offset="47.2%"></stop>
            <stop stop-color="#FF2C2E" offset="62.1%"></stop>
            <stop stop-color="#FF1434" offset="76.2%"></stop>
            <stop stop-color="#FF0538" offset="89.2%"></stop>
            <stop stop-color="#FF0039" offset="100%"></stop>
        </radialGradient>
        <radialGradient cx="211.883445%" cy="2.14494548%" fx="211.883445%" fy="2.14494548%" r="377.539423%" gradientTransform="translate(2.118834,0.021449),scale(0.533470,1.000000),rotate(5.761779),translate(-2.118834,-0.021449)" id="radialGradient-6">
            <stop stop-color="#FF272D" offset="0.3%"></stop>
            <stop stop-color="#C42482" offset="49.7%"></stop>
            <stop stop-color="#620700" offset="98.6%"></stop>
        </radialGradient>
        <radialGradient cx="76.8453227%" cy="39.179475%" fx="76.8453227%" fy="39.179475%" r="84.0433431%" gradientTransform="translate(0.768453,0.391795),scale(1.000000,0.959470),translate(-0.768453,-0.391795)" id="radialGradient-7">
            <stop stop-color="#FFEA00" offset="15.6%"></stop>
            <stop stop-color="#FFDE00" offset="23.1%"></stop>
            <stop stop-color="#FFBF00" offset="36.5%"></stop>
            <stop stop-color="#FF8E00" offset="54.1%"></stop>
            <stop stop-color="#FF272D" offset="76.3%"></stop>
            <stop stop-color="#F92433" offset="79.6%"></stop>
            <stop stop-color="#E91C45" offset="84.1%"></stop>
            <stop stop-color="#CF0E62" offset="89.3%"></stop>
            <stop stop-color="#B5007F" offset="93.5%"></stop>
        </radialGradient>
        <radialGradient cx="24.9534176%" cy="0.138231601%" fx="24.9534176%" fy="0.138231601%" r="249.815176%" gradientTransform="translate(0.249534,0.001382),scale(1.000000,0.396485),translate(-0.249534,-0.001382)" id="radialGradient-8">
            <stop stop-color="#FFEA00" offset="27.9%"></stop>
            <stop stop-color="#FFDD00" offset="40.2%"></stop>
            <stop stop-color="#FFBA00" offset="63%"></stop>
            <stop stop-color="#FF9100" offset="85.6%"></stop>
            <stop stop-color="#FF6711" offset="93.3%"></stop>
            <stop stop-color="#FF4A1D" offset="99.4%"></stop>
        </radialGradient>
        <linearGradient x1="-82.2555484%" y1="64.455333%" x2="121.169039%" y2="29.6659057%" id="linearGradient-9">
            <stop stop-color="#C42482" stop-opacity="0.5" offset="0%"></stop>
            <stop stop-color="#FF272D" stop-opacity="0.5" offset="47.4%"></stop>
            <stop stop-color="#FF2C2C" stop-opacity="0.513" offset="48.6%"></stop>
            <stop stop-color="#FF7A1A" stop-opacity="0.72" offset="67.5%"></stop>
            <stop stop-color="#FFB20D" stop-opacity="0.871" offset="82.9%"></stop>
            <stop stop-color="#FFD605" stop-opacity="0.964" offset="94.2%"></stop>
            <stop stop-color="#FFE302" offset="100%"></stop>
        </linearGradient>
        <linearGradient x1="52.9481506%" y1="94.8929888%" x2="36.1567612%" y2="5.47775928%" id="linearGradient-10">
            <stop stop-color="#891551" stop-opacity="0.6" offset="0%"></stop>
            <stop stop-color="#C42482" stop-opacity="0" offset="100%"></stop>
        </linearGradient>
        <linearGradient x1="27.0011607%" y1="6.68641317%" x2="48.856905%" y2="47.8860609%" id="linearGradient-11">
            <stop stop-color="#891551" stop-opacity="0.5" offset="0.5%"></stop>
            <stop stop-color="#FF272D" stop-opacity="0.5" offset="48.4%"></stop>
            <stop stop-color="#FF272D" stop-opacity="0" offset="100%"></stop>
        </linearGradient>
        <linearGradient x1="47.5090137%" y1="56.361967%" x2="50.0086151%" y2="47.7956819%" id="linearGradient-12">
            <stop stop-color="#C42482" offset="0%"></stop>
            <stop stop-color="#C42482" stop-opacity="0.81" offset="8.3%"></stop>
            <stop stop-color="#C42482" stop-opacity="0.565" offset="20.6%"></stop>
            <stop stop-color="#C42482" stop-opacity="0.362" offset="32.8%"></stop>
            <stop stop-color="#C42482" stop-opacity="0.204" offset="44.7%"></stop>
            <stop stop-color="#C42482" stop-opacity="0.091" offset="56.2%"></stop>
            <stop stop-color="#C42482" stop-opacity="0.023" offset="67.3%"></stop>
            <stop stop-color="#C42482" stop-opacity="0" offset="77.3%"></stop>
        </linearGradient>
        <linearGradient x1="40.8989464%" y1="1.6470824%" x2="58.8270646%" y2="89.4608567%" id="linearGradient-13">
            <stop stop-color="#FFF14F" offset="0%"></stop>
            <stop stop-color="#FFEE4C" offset="26.8%"></stop>
            <stop stop-color="#FFE643" offset="45.2%"></stop>
            <stop stop-color="#FFD834" offset="61.2%"></stop>
            <stop stop-color="#FFC41E" offset="75.7%"></stop>
            <stop stop-color="#FFAB02" offset="89.2%"></stop>
            <stop stop-color="#FFA900" offset="90.2%"></stop>
            <stop stop-color="#FFA000" offset="94.9%"></stop>
            <stop stop-color="#FF9100" offset="100%"></stop>
        </linearGradient>
        <linearGradient x1="70.04206%" y1="7.15860627%" x2="43.3270302%" y2="81.9478615%" id="linearGradient-14">
            <stop stop-color="#FF8E00" offset="0%"></stop>
            <stop stop-color="#FF8E00" stop-opacity="0.858" offset="4%"></stop>
            <stop stop-color="#FF8E00" stop-opacity="0.729" offset="8.4%"></stop>
            <stop stop-color="#FF8E00" stop-opacity="0.628" offset="13%"></stop>
            <stop stop-color="#FF8E00" stop-opacity="0.557" offset="17.8%"></stop>
            <stop stop-color="#FF8E00" stop-opacity="0.514" offset="22.7%"></stop>
            <stop stop-color="#FF8E00" stop-opacity="0.5" offset="28.2%"></stop>
            <stop stop-color="#FF8E00" stop-opacity="0.478" offset="38.9%"></stop>
            <stop stop-color="#FF8E00" stop-opacity="0.416" offset="52.4%"></stop>
            <stop stop-color="#FF8E00" stop-opacity="0.314" offset="67.6%"></stop>
            <stop stop-color="#FF8E00" stop-opacity="0.172" offset="83.8%"></stop>
            <stop stop-color="#FF8E00" stop-opacity="0" offset="100%"></stop>
        </linearGradient>
    </defs>
    <g id="firefox" stroke="none" stroke-width="1" fill="none" fill-rule="evenodd">
        <path d="M4.6277704,-2.07168062e-16 L195.37223,2.07168062e-16 C197.155267,-1.2037061e-16 197.80184,0.185651222 198.453691,0.534265408 C199.105543,0.882879593 199.61712,1.39445674 199.965735,2.04630859 C200.314349,2.69816044 200.5,3.34473292 200.5,5.1277704 L200.5,54.8722296 C200.5,56.6552671 200.314349,57.3018396 199.965735,57.9536914 C199.61712,58.6055433 199.105543,59.1171204 198.453691,59.4657346 C197.80184,59.8143488 197.155267,60 195.37223,60 L4.6277704,60 C2.84473292,60 2.19816044,59.8143488 1.54630859,59.4657346 C0.894456741,59.1171204 0.382879593,58.6055433 0.0342654076,57.9536914 C-0.314348778,57.3018396 -0.5,56.6552671 -0.5,54.8722296 L-0.5,5.1277704 C-0.5,3.34473292 -0.314348778,2.69816044 0.0342654076,2.04630859 C0.382879593,1.39445674 0.894456741,0.882879593 1.54630859,0.534265408 C2.19816044,0.185651222 2.84473292,1.2037061e-16 4.6277704,-2.07168062e-16 Z" id="矩形" fill="#109AD6"></path>
        <g id="Firefox_Logo,_2017" transform="translate(31.000000, 9.000000)" fill-rule="nonzero">
            <path d="M32.8780183,3.90796341 C31.8558902,5.09813415 31.3798476,7.77670122 32.4162744,10.492061 C33.4527012,13.2074207 35.0412744,12.6176707 36.0315183,15.3866402 C37.3385976,19.0402988 36.7301951,23.9483659 36.7301951,23.9483659 C36.7301951,23.9483659 38.3015244,28.49875 39.3965122,23.66525 C41.8201768,14.5864634 32.8780183,6.14365244 32.8780183,3.90796341 Z" id="路径" fill="url(#radialGradient-1)"></path>
            <path d="M20.4055122,41.6004024 C30.8729024,41.6004024 39.3524634,33.0749573 39.3524634,22.562622 C39.3524634,12.0502866 30.8729024,3.52488415 20.4156707,3.52488415 C9.95843902,3.52488415 1.47892718,12.0503293 1.47892718,22.562622 C1.45868902,33.0851159 9.9482378,41.6004024 20.4055122,41.6004024 Z" id="_Path_" fill="url(#radialGradient-2)"></path>
            <path d="M34.6019817,34.3015366 C34.1924058,34.5904871 33.7627357,34.8498468 33.3162439,35.0776402 C33.9077068,34.2110088 34.4533729,33.3139935 34.951,32.3902805 C35.3547805,31.9433902 35.7246707,31.5089634 36.0260976,31.0392378 C36.1727988,30.8084512 36.3382378,30.5236707 36.5133659,30.1933049 C37.5770671,28.2768415 38.7499512,25.175372 38.7832012,21.9896463 L38.7832012,21.9819634 C38.7840992,21.9035549 38.7840992,21.8251037 38.7840992,21.7465671 C38.7893037,20.9468984 38.7075518,20.1490157 38.5399939,19.3670793 C38.5485305,19.4281585 38.5560427,19.4891951 38.5637256,19.5502317 C38.5542927,19.5032805 38.5463537,19.4558171 38.5362378,19.4087805 C38.5518598,19.4955976 38.5644085,19.5795122 38.5778963,19.6641524 C38.7953232,21.5087805 38.6404695,23.3080793 37.8658598,24.6345793 C37.8536524,24.6539573 37.8411037,24.6720976 37.8287683,24.6910488 C38.2304146,22.6749634 38.3647805,20.4489207 37.9178902,18.2203171 C37.9178902,18.2203171 37.7391768,17.1368963 36.407939,13.8478354 C35.6416951,11.9547195 34.2809207,10.4026402 33.0786707,9.27192683 C32.0248293,7.96813415 31.0677073,7.09317683 30.5401037,6.53765854 C29.4379878,5.37715244 28.9760732,4.50727439 28.7863902,3.93967683 C28.6219329,3.85721341 26.5184329,1.81376829 26.3513293,1.73591463 C25.4331768,3.15947561 22.5456341,7.61228659 23.9192134,11.7726341 C24.5417012,13.6580244 26.1159756,15.6148232 27.7635366,16.7125854 C27.8358841,16.7952195 28.7439207,17.7814512 29.1757439,20.005872 C29.6216098,22.3040061 29.3871951,24.0972439 28.4695122,26.7490488 C27.3902317,29.0754817 24.625189,31.3753659 22.0361707,31.6106341 C16.5012195,32.1134817 14.4749329,28.8316341 14.4749329,28.8316341 C16.452689,29.6223354 18.6394207,29.456939 19.96925,28.6371707 C21.3094939,27.8080549 22.1202134,27.1933354 22.7782134,27.4357317 C23.4269939,27.6770183 23.9434573,26.9766341 23.4800061,26.2505549 C22.7483722,25.1236694 21.4143478,24.5427975 20.0909817,24.774878 C18.7493293,24.9929451 17.5203598,26.05575 15.7624207,25.0264512 C15.6486428,24.9604273 15.5385167,24.8883018 15.4325244,24.8103902 C15.3166402,24.7342012 15.8092439,24.9263598 15.6942988,24.8397561 C15.3521951,24.6539146 14.7467378,24.248939 14.5896646,24.1048841 C14.5635,24.0808963 14.8551098,24.1978902 14.8289451,24.1738598 C13.1852256,22.8202988 13.3905305,21.9059451 13.4421768,21.3324573 C13.4835366,20.8736585 13.7821037,20.2857439 14.2852073,20.0472744 C14.5282012,20.1798902 14.6795976,20.2811341 14.6795976,20.2811341 C14.6795976,20.2811341 14.5759634,20.0693841 14.5199207,19.9577683 C14.5395549,19.9492317 14.5583354,19.9514939 14.5778841,19.9431707 C14.7769573,20.03925 15.2171463,20.2889024 15.4489146,20.4411524 C15.7507683,20.6540549 15.8469756,20.8439085 15.8469756,20.8439085 C15.8469756,20.8439085 15.9264512,20.8001585 15.8676768,20.6144878 C15.8463354,20.5383415 15.7546951,20.296372 15.4557012,20.0521829 L15.4743963,20.0542744 C15.6533522,20.1562409 15.8228624,20.2739568 15.9809146,20.4060244 C16.0652134,20.0995183 16.2168232,19.7794817 16.1834878,19.2069756 C16.163128,18.8044329 16.1725183,18.7002012 16.1015793,18.54475 C16.0380671,18.4112378 16.1371768,18.3591646 16.2474695,18.4977988 C16.2285916,18.3891729 16.1969582,18.2831549 16.1532256,18.1819451 L16.1541646,18.1715305 C16.2918171,17.6919451 19.067189,16.4445366 19.2692073,16.2987317 C19.6011305,16.0638747 19.8794594,15.76128 20.0858171,15.4109268 C20.2402012,15.1649451 20.3562988,14.8198537 20.3845976,14.2963902 C20.39975,13.9189024 20.2241524,13.6675 17.4178354,13.3736707 C16.6503537,13.2980793 16.2000488,12.7419634 15.9441646,12.2287866 C15.8974695,12.1182378 15.849878,12.018061 15.8022439,11.9179695 C15.7567783,11.800958 15.7202787,11.6806578 15.693061,11.5581098 C16.1518598,10.2403598 16.9227561,9.12616463 18.0562866,8.28432927 C18.1180488,8.22807317 17.8094939,8.2987561 17.8712134,8.2425 C17.9432195,8.17685366 18.4135427,7.98738415 18.5023659,7.94470122 C18.6108659,7.89348171 18.0378902,7.65018902 17.5320976,7.70943293 C17.0169573,7.76748171 16.907561,7.82894512 16.6326402,7.9455122 C16.7467317,7.83193293 17.1095366,7.68305488 17.0244695,7.68403659 C16.469122,7.76918902 15.7790244,8.092 15.1891037,8.45762195 C15.1879542,8.39395529 15.2000926,8.33074841 15.2247439,8.27203659 C14.9498232,8.38864634 14.274622,8.86054878 14.0780671,9.25980488 C14.0865377,9.18327818 14.0903293,9.10630578 14.0894207,9.02931707 C13.8799888,9.20398549 13.6910471,9.40184804 13.5262195,9.61910976 L13.5159329,9.62845732 C11.9213841,8.98607927 10.5181829,8.9445061 9.3307439,9.23253049 C9.07097561,8.97165244 8.94407927,9.16235976 8.3530061,7.86373171 C8.31284146,7.78553659 8.38382317,7.94094512 8.3530061,7.86373171 C8.25577439,7.61190244 8.41229268,8.19973171 8.3530061,7.86373171 C7.35917683,8.64790244 6.05154268,9.53660366 5.42384756,10.1639146 C5.41607927,10.1889268 6.15611585,9.95476829 5.42384756,10.1639146 C5.16740854,10.2371585 5.18482317,10.3893232 5.14585366,11.7645244 C5.13646341,11.8687988 5.14478659,11.9855793 5.13633537,12.079439 C4.63489634,12.7183171 4.29339024,13.2593232 4.16423171,13.5396646 C3.51575,14.6571037 2.80153659,16.3990793 2.10921951,19.1546463 C2.4145888,18.407736 2.78275366,17.6880697 3.2097561,17.0033841 C2.63404878,18.466 2.0775061,20.762811 1.96623171,24.2998171 C2.1054988,23.569942 2.28407377,22.8481189 2.50117683,22.1375 C2.36526323,25.0719308 2.87130197,28.0006774 3.98398171,30.719372 C4.38217073,31.693439 5.04081098,33.1717195 6.16204878,34.7913232 C9.68479878,38.4978659 14.6536037,40.8053476 20.1557317,40.8053476 C25.8996585,40.8053476 31.0575915,38.2922622 34.6019817,34.3015366 Z" id="路径" fill="url(#linearGradient-3)"></path>
            <path d="M30.3518293,36.9936341 C37.3035976,36.1886341 40.3809939,29.0247317 36.4290671,28.883878 C32.8593659,28.7697866 27.0590122,37.3735122 30.3518293,36.9936341 Z" id="路径" fill="url(#radialGradient-4)"></path>
            <path d="M36.9295671,27.4205366 C41.7124451,24.6370122 40.465378,18.624439 40.465378,18.624439 C40.465378,18.624439 38.6195122,20.7687439 37.3655305,24.186878 C36.1268293,27.5715915 34.0540183,29.1017317 36.9295671,27.4205366 Z" id="路径" fill="url(#radialGradient-5)"></path>
            <path d="M21.7458415,40.5514268 C28.4140671,42.6792134 34.1452317,37.4261829 30.6124939,35.6719146 C27.400561,34.0898293 18.5809024,39.5453049 21.7458415,40.5514268 Z" id="路径" fill="url(#radialGradient-6)"></path>
            <path d="M37.4264817,29.9734024 C37.5886768,29.7444939 37.8080671,29.0115427 38.0018476,28.6839085 C39.179128,26.7835366 39.1874512,25.2682927 39.1874512,25.2335915 C39.8985061,21.681561 39.8340122,20.2311524 39.3965976,17.5488293 C39.0444207,15.3890732 37.5048049,12.2949024 36.1710488,10.8049268 C34.7966585,9.26983537 35.7649634,9.7699939 34.4341951,8.64867073 C33.2677988,7.35567683 32.136872,6.07527439 31.5209573,5.56034756 C27.0701524,1.83937805 27.1707134,1.04901829 27.2564207,0.914268293 C27.2419512,0.930103659 27.2206951,0.953621951 27.1935915,0.984396341 C27.140878,0.774268293 27.1036585,0.597560976 27.1036585,0.597560976 C27.1036585,0.597560976 24.6707317,3.0304878 24.1585366,7.08536585 C23.8241585,9.73260366 24.815128,12.4922683 26.25,14.2560976 C26.9971716,15.1701824 27.8415701,16.0002691 28.7682927,16.7317073 L28.7682927,16.7305976 C29.852439,18.2875427 30.4491463,20.2087866 30.4491463,22.2754939 C30.4491463,27.4505427 26.2516646,31.6457195 21.0737561,31.6457195 C20.3680735,31.6460852 19.6645893,31.567066 18.9765732,31.4101524 C16.5335732,30.9445671 15.1228171,29.7121829 14.4192317,28.8755549 C14.0160061,28.3960549 13.8445488,28.0465244 13.8445488,28.0465244 C16.0334573,28.8306524 18.4537073,28.666622 19.9255,27.8536829 C21.408689,27.0313963 22.3060976,26.4218415 23.0343963,26.662189 C23.7523232,26.9014695 24.3238902,26.2068902 23.8112256,25.486872 C23.3088049,24.767878 22.0014695,23.7381524 20.0603354,24.0234451 C18.575439,24.2397195 17.2152195,25.293689 15.2696037,24.2729268 C15.1443012,24.2078221 15.0224364,24.1363045 14.9044939,24.0586585 C14.7762317,23.9830671 15.3214207,24.173689 15.1941829,24.0877683 C14.8155854,23.9034634 14.1453354,23.5018171 13.9716159,23.359 C13.9426341,23.3352256 14.2654024,23.4512378 14.23625,23.4272927 C12.417061,22.0849573 12.6441768,21.1782012 12.7014146,20.6094512 C12.7472134,20.1544512 13.077622,19.5714024 13.6344207,19.334939 C13.9033232,19.4664451 14.0708963,19.5668354 14.0708963,19.5668354 C14.0708963,19.5668354 13.9561646,19.3568354 13.8941463,19.2461585 C13.915872,19.237878 13.9365732,19.2399695 13.9581707,19.231689 C14.1785,19.3269573 14.6656829,19.5743902 14.9222073,19.7255305 C15.2562866,19.9366829 15.3627805,20.1249573 15.3627805,20.1249573 C15.3627805,20.1249573 15.45075,20.0815915 15.3856585,19.8974573 C15.3618841,19.8219512 15.2606402,19.5819878 14.9297195,19.3398049 L14.9504207,19.3418963 C15.1468645,19.4420295 15.3344101,19.558735 15.5110183,19.6907439 C15.6043232,19.3867988 15.7721524,19.0694085 15.7352317,18.5016402 C15.7126951,18.1024695 15.7231098,17.9990488 15.6445732,17.8449207 C15.5742744,17.7126037 15.6840122,17.660872 15.806,17.7984817 C15.7848878,17.689947 15.7498245,17.5845993 15.7016829,17.485061 L15.70275,17.4747317 C15.855128,16.9991159 18.9268049,15.7620793 19.150378,15.6174695 C19.5106482,15.3913232 19.8187277,15.0911731 20.054189,14.7369207 C20.2249207,14.4929878 20.3535671,14.1507561 20.3848963,13.6316463 C20.3953963,13.3977439 20.3233902,13.212628 19.5098963,13.0355793 C19.0216463,12.9292988 18.2662866,12.825878 17.1011707,12.7165671 C16.2517805,12.6416159 15.753372,12.0901524 15.4701707,11.5812012 C15.4184817,11.4715488 15.365811,11.3720549 15.3130976,11.2729451 C15.2629878,11.1575609 15.2225698,11.0382058 15.1922622,10.9161159 C15.700533,9.58551698 16.6158838,8.44933115 17.8078293,7.66952439 C17.876122,7.61369512 17.5346585,7.68382317 17.6029512,7.62803659 C17.6826829,7.56294512 18.2032012,7.37505488 18.3015427,7.33271341 C18.4216098,7.28209146 17.7874695,7.0407622 17.2276829,7.09940854 C16.6575671,7.1569878 16.5364756,7.21789634 16.232189,7.33356707 C16.3584878,7.22092683 16.7600061,7.07320122 16.6658902,7.07426829 C16.0512561,7.15869512 15.2872317,7.47885976 14.6341829,7.84140854 C14.6329875,7.77784107 14.6464843,7.71485584 14.673622,7.65735976 C14.3693354,7.7729878 13.6220427,8.2410061 13.4044878,8.63693293 C13.4138438,8.56113045 13.4180363,8.48477967 13.4170366,8.40840854 C13.1879046,8.57917772 12.978849,8.77534637 12.7938659,8.99316463 L12.7824695,9.00246951 C11.0176585,8.36542683 9.46464024,8.32419512 8.15043293,8.60978659 C7.86292073,8.35108537 7.40066463,7.95989634 6.7465061,6.67198171 C6.70207317,6.59442683 6.67821341,6.8322561 6.64406707,6.75568293 C6.38989024,6.16610366 6.23631707,5.20014634 6.26154268,4.53420732 C6.26154268,4.53420732 5.73577439,4.77382927 5.30062195,5.77457317 C5.21982317,5.95448171 5.1680061,6.05371951 5.11623171,6.15295732 C5.09241463,6.18189634 5.17022561,5.82429878 5.15780488,5.8437622 C5.08217073,5.97181098 4.8865122,6.1507378 4.8005061,6.38233537 C4.74143293,6.55396341 4.65858537,6.65008537 4.60570122,6.86414024 L4.59328049,6.88377439 C4.5890122,6.82068902 4.60894512,6.62421951 4.59443293,6.6645122 C4.39046677,7.0765973 4.21494283,7.50215871 4.06909146,7.93821341 C3.83480488,8.70846951 3.56206098,9.75693293 3.51882317,11.1208659 C3.50840854,11.2242866 3.51767073,11.3400854 3.50828049,11.4331768 C2.95340244,12.0667622 2.57531707,12.6032439 2.43237195,12.8813232 C1.715,13.9898415 0.924512195,15.7173902 0.15822561,18.4500793 C0.499155021,17.7036147 0.906841269,16.9894852 1.37631098,16.3164024 C0.739097561,17.7668963 0.123140244,20.0446707 0,23.552439 C0.154675608,22.8265353 0.352390582,22.1104741 0.592097561,21.4080488 C0.482060976,23.7470732 0.754506098,26.6469512 2.23321341,29.9187256 C3.11120122,31.8431707 5.13228049,35.7513049 10.0706524,38.8010427 L10.0702256,38.8013415 C10.0702256,38.8013415 11.7502256,40.0519512 14.6380244,40.9892256 C14.851439,41.0666524 15.067628,41.1428841 15.2882561,41.2168537 C15.2190244,41.1888963 15.1520549,41.1594878 15.0870061,41.1292683 C17.0091511,41.7051719 19.0048311,41.9984851 21.0113963,42.0000101 C28.4885915,42.0063598 30.6938476,39.0036585 30.6938476,39.0036585 C30.6938476,39.0036585 30.6860793,39.0095061 30.6719512,39.01975 C30.7774634,38.9204126 30.8790915,38.8171626 30.9768354,38.71 C29.797122,39.8240244 27.1048537,39.8979512 26.0981768,39.8175793 C27.8150122,39.3133659 28.9447439,38.8868354 31.1422317,38.0454268 C31.3993821,37.9501016 31.6623374,37.8414024 31.9310976,37.7193293 C31.9601646,37.7065244 31.9894878,37.6926524 32.0186829,37.679378 C32.0719939,37.6545366 32.1247927,37.631061 32.1786159,37.604939 C33.2492769,37.1003995 34.2560309,36.4701287 35.1776037,35.7274451 C37.384311,33.9646402 37.8644512,32.2463537 38.1154268,31.1134207 C38.0804268,31.2220061 37.971372,31.4751585 37.8947561,31.6391037 C37.3264329,32.8547988 36.0661768,33.6007683 34.6974634,34.2405427 C35.3487743,33.3859728 35.9527613,32.4963502 36.5067073,31.5756768 C36.9534695,31.1325 37.092872,30.4392439 37.4264817,29.9734024 Z" id="路径" fill="url(#radialGradient-7)"></path>
            <path d="M34.7405305,34.1882561 C35.6402866,33.1962622 36.4482744,32.061622 37.0603049,30.7749878 C38.6353049,27.463561 41.0704512,21.9575488 39.1525366,16.2070488 C37.6367378,11.6620427 35.555561,9.17682927 32.9131037,6.74910976 C28.6215915,2.80665854 27.4230122,1.04662805 27.4230122,0 C27.4230122,0 22.4679939,5.52355488 24.6169512,11.2845549 C26.7659085,17.0455549 31.1670732,16.8343598 34.0788598,22.84625 C37.5052317,29.9207317 31.3066463,37.64075 26.1806402,39.8015305 C26.4944878,39.7318293 37.5757012,37.2242073 38.1580671,30.8858354 C38.144878,31.0024024 37.8951829,32.7554756 34.7405305,34.1882561 Z" id="路径" fill="url(#radialGradient-8)"></path>
            <path d="M20.3850244,13.6317744 C20.4017988,13.2574451 20.2076341,13.0060427 17.1120122,12.7156707 C15.8383963,12.5980793 15.3507012,11.4209268 15.2020366,10.9255061 C14.7491707,12.102061 14.5621768,13.3366646 14.6626951,14.8300122 C14.7314146,15.8083049 15.388689,16.8583476 15.702878,17.4748598 C15.702878,17.4748598 15.7727073,17.3841159 15.8049329,17.3505671 C16.396561,16.7346098 18.875372,15.7960976 19.10825,15.6628415 C19.3649451,15.500689 20.3419146,14.7868598 20.3850244,13.6317744 Z" id="路径" fill="url(#linearGradient-9)"></path>
            <path d="M6.75730488,6.67864024 C6.71287195,6.60104268 6.6890122,6.83887195 6.65486585,6.76234146 C6.40068902,6.1727622 6.24604878,5.21721951 6.28267073,4.54189024 C6.28267073,4.54189024 5.75690244,4.7815122 5.32175,5.7822561 C5.24095122,5.96216463 5.18913415,6.06140244 5.13735976,6.16064024 C5.11354268,6.18957927 5.19135366,5.83198171 5.17893293,5.85144512 C5.10334146,5.9794939 4.90768293,6.15842073 4.82270122,6.37964634 C4.75223171,6.56057927 4.6797561,6.65772561 4.62580488,6.88210976 C4.60920122,6.94310366 4.64253659,6.61222561 4.62802439,6.65251829 C3.61596951,8.60846341 3.42278659,11.5659207 3.52945122,11.4408598 C5.684,9.14025 8.15307927,8.59463415 8.15307927,8.59463415 C7.89036585,8.40110976 7.31956707,7.84234756 6.75734756,6.67864024 L6.75730488,6.67864024 Z" id="路径" fill="url(#linearGradient-10)"></path>
            <path d="M14.9323659,30.7359756 C11.9563415,29.4653476 8.57295122,27.6732622 8.70065854,23.6020366 C8.87459146,18.24025 13.70075,19.2999817 13.70075,19.2999817 C13.518622,19.3443293 13.0316951,19.6910427 12.859128,20.0605915 C12.6767439,20.5227195 12.3439878,21.5662744 13.3521585,22.6599817 C14.9352256,24.3754939 10.0997195,26.7300549 17.5633841,31.1780854 C17.7516159,31.2805244 15.8137683,31.1170488 14.9324512,30.7359756 L14.9323659,30.7359756 Z" id="路径" fill="url(#linearGradient-11)"></path>
            <path d="M13.8751098,28.0640244 C15.985439,28.7984695 18.4438902,28.6696524 19.9157256,27.8566707 C20.901061,27.3081524 22.1651159,26.4296098 22.9428841,26.6464817 C22.2694756,26.380311 21.7594573,26.2559329 21.1459329,26.2255427 C21.0414451,26.2255427 20.9162134,26.2233232 20.8024207,26.2118841 C20.5777123,26.2111566 20.3531507,26.2234557 20.1298659,26.2487195 C19.7499878,26.2836341 19.328878,26.5232988 18.9460549,26.4848415 C18.9253537,26.48275 19.3173963,26.3237561 19.2855122,26.3309695 C19.0826829,26.3732683 18.862311,26.3824024 18.6294756,26.4112561 C18.4814939,26.4277317 18.3542134,26.4462561 18.2072988,26.4523598 C13.8117256,26.8251098 10.0968171,24.0700976 10.0968171,24.0700976 C9.78062195,25.1350366 11.512439,27.241439 13.8751524,28.0640244 L13.8751098,28.0640244 Z" id="路径" fill="url(#linearGradient-12)"></path>
            <path d="M34.7327195,34.2165976 C39.1786585,29.8514146 41.4280488,24.5452866 40.4771159,18.5938354 C40.4771159,18.5938354 40.8569939,21.6456646 39.4165305,24.7669817 C40.1085488,21.7197195 40.1890915,17.9328476 38.3505244,14.0113963 C35.8965549,8.77714634 31.8606707,6.02294512 30.3198598,4.87392073 C27.9853171,3.13292683 27.0175671,1.36030488 27.0001098,0.994512195 C26.3027134,2.42340854 24.1930244,7.32012195 26.7734634,11.5371951 C29.1910244,15.4880976 32.9994085,16.660811 35.6655122,20.2849329 C40.57725,26.9613963 34.7327195,34.2165976 34.7327195,34.2165976 Z" id="路径" fill="url(#linearGradient-13)"></path>
            <path d="M34.0957195,22.8588841 C32.5419756,19.6490854 30.6027195,18.2490854 28.7682927,16.7317073 C28.9817073,17.0304878 29.0342927,17.1360427 29.152439,17.3292683 C30.7670061,19.0500732 33.1478598,23.2475122 31.4193293,28.5167622 C28.1656524,38.4352073 15.1510305,33.764628 13.7865854,32.4526402 C14.338561,38.1930244 23.9466585,40.9399268 30.202439,37.2173354 C33.7621951,33.847561 36.6419268,28.119 34.0957195,22.8588841 Z" id="路径" fill="url(#linearGradient-14)"></path>
        </g>
        <path d="M86.587,14.808 C87.833,14.808 88.827,15.102 89.569,15.718 C90.269,16.292 90.703,17.118 90.885,18.21 L89.737,18.21 C89.583,17.454 89.247,16.88 88.729,16.474 C88.183,16.04 87.469,15.83 86.587,15.83 C85.495,15.83 84.641,16.208 83.997,16.978 C83.353,17.734 83.045,18.756 83.045,20.044 C83.045,21.304 83.353,22.298 83.969,23.026 C84.627,23.796 85.607,24.188 86.909,24.188 C87.455,24.188 87.973,24.104 88.477,23.964 C88.967,23.824 89.387,23.628 89.737,23.404 L89.737,20.856 L86.601,20.856 L86.601,19.862 L90.871,19.862 L90.871,23.95 C90.395,24.342 89.807,24.636 89.121,24.86 C88.393,25.084 87.623,25.196 86.797,25.196 C85.215,25.196 83.983,24.692 83.115,23.684 C82.303,22.746 81.897,21.528 81.897,20.044 C81.897,18.56 82.289,17.342 83.101,16.376 C83.955,15.326 85.117,14.808 86.587,14.808 Z M92.789,15.004 L99.873,15.004 L99.873,15.998 L93.937,15.998 L93.937,19.344 L99.537,19.344 L99.537,20.338 L93.937,20.338 L93.937,24.006 L100.111,24.006 L100.111,25 L92.789,25 L92.789,15.004 Z M100.937,15.004 L109.127,15.004 L109.127,15.998 L105.599,15.998 L105.599,25 L104.465,25 L104.465,15.998 L100.937,15.998 L100.937,15.004 Z M114.265,15.004 L122.455,15.004 L122.455,15.998 L118.927,15.998 L118.927,25 L117.793,25 L117.793,15.998 L114.265,15.998 L114.265,15.004 Z M123.701,15.004 L124.849,15.004 L124.849,19.344 L130.631,19.344 L130.631,15.004 L131.779,15.004 L131.779,25 L130.631,25 L130.631,20.338 L124.849,20.338 L124.849,25 L123.701,25 L123.701,15.004 Z M133.781,15.004 L140.865,15.004 L140.865,15.998 L134.929,15.998 L134.929,19.344 L140.529,19.344 L140.529,20.338 L134.929,20.338 L134.929,24.006 L141.103,24.006 L141.103,25 L133.781,25 L133.781,15.004 Z" id="GETTHE" fill="#FFFFFF" fill-rule="nonzero"></path>
        <path d="M86.8075,29.006 L89.6005,29.006 L95.3335,44 L92.7085,44 L91.3435,40.241 L85.0645,40.241 L83.6995,44 L81.0745,44 L86.8075,29.006 Z M85.7995,38.225 L90.6085,38.225 L88.2565,31.652 L88.1725,31.652 L85.7995,38.225 Z M96.8035,29.006 L102.2845,29.006 C104.7205,29.006 106.5475,29.678 107.8075,31.022 C109.0045,32.282 109.6135,34.109 109.6135,36.503 C109.6135,38.876 109.0045,40.703 107.8075,41.984 C106.5475,43.328 104.7205,44 102.2845,44 L96.8035,44 L96.8035,29.006 Z M99.2605,31.106 L99.2605,41.9 L101.8225,41.9 C103.6915,41.9 105.0565,41.459 105.9175,40.598 C106.7575,39.716 107.1775,38.351 107.1775,36.503 C107.1775,34.613 106.7575,33.227 105.9175,32.387 C105.0565,31.526 103.6915,31.106 101.8225,31.106 L99.2605,31.106 Z M111.9235,29.006 L117.4045,29.006 C119.8405,29.006 121.6675,29.678 122.9275,31.022 C124.1245,32.282 124.7335,34.109 124.7335,36.503 C124.7335,38.876 124.1245,40.703 122.9275,41.984 C121.6675,43.328 119.8405,44 117.4045,44 L111.9235,44 L111.9235,29.006 Z M114.3805,31.106 L114.3805,41.9 L116.9425,41.9 C118.8115,41.9 120.1765,41.459 121.0375,40.598 C121.8775,39.716 122.2975,38.351 122.2975,36.503 C122.2975,34.613 121.8775,33.227 121.0375,32.387 C120.1765,31.526 118.8115,31.106 116.9425,31.106 L114.3805,31.106 Z M126.6235,37.574 L137.2285,37.574 L137.2285,39.548 L126.6235,39.548 L126.6235,37.574 Z M146.4055,28.712 C148.6945,28.712 150.5005,29.447 151.8235,30.938 C153.0835,32.345 153.7135,34.214 153.7135,36.524 C153.7135,38.834 153.0835,40.682 151.8235,42.089 C150.5005,43.559 148.6945,44.294 146.4055,44.294 C144.0955,44.294 142.2895,43.538 140.9875,42.068 C139.7275,40.64 139.1185,38.792 139.1185,36.524 C139.1185,34.235 139.7275,32.387 140.9875,30.959 C142.2895,29.447 144.0955,28.712 146.4055,28.712 Z M146.4055,30.875 C144.8515,30.875 143.6545,31.4 142.7935,32.45 C141.9745,33.458 141.5755,34.802 141.5755,36.524 C141.5755,38.225 141.9745,39.569 142.7935,40.577 C143.6335,41.606 144.8515,42.131 146.4055,42.131 C147.9595,42.131 149.1565,41.627 149.9965,40.64 C150.8155,39.653 151.2355,38.288 151.2355,36.524 C151.2355,34.76 150.8155,33.374 149.9965,32.366 C149.1565,31.358 147.9595,30.875 146.4055,30.875 Z M156.0235,29.006 L158.4805,29.006 L165.8935,39.821 L165.9775,39.821 L165.9775,29.006 L168.4555,29.006 L168.4555,44 L166.0615,44 L158.5645,33.038 L158.4805,33.038 L158.4805,44 L156.0235,44 L156.0235,29.006 Z" id="ADD-ON" fill="#FFFFFF" fill-rule="nonzero"></path>
    </g>
</svg>