<?xml version="1.0" encoding="UTF-8"?>
<svg width="128px" height="128px" viewBox="-64 -64 256 256" version="1.1" xmlns="http://www.w3.org/2000/svg" xmlns:xlink="http://www.w3.org/1999/xlink">
    <!-- Generator: Sketch 55.2 (78181) - https://sketchapp.com -->
    <title>logo</title>
    <desc>Created with Sketch.</desc>
    <g id="logo" stroke="none" stroke-width="1" fill="none" fill-rule="evenodd">
        <g>
            <rect id="矩形" fill="#FFFFFF" transform="translate(57.231303, 71.644939) rotate(-45.000000) translate(-57.231303, -71.644939) " x="19.7313027" y="59.8949394" width="75" height="23.5"></rect>
            <rect id="矩形" fill="#FFFFFF" transform="translate(88.131354, 40.245689) rotate(-45.000000) translate(-88.131354, -40.245689) " x="82.6313545" y="14.245689" width="11" height="52"></rect>
            <rect id="矩形" fill="#FFFFFF" transform="translate(109.489592, 18.524028) rotate(-45.000000) translate(-109.489592, -18.524028) " x="103.989592" y="1.02402821" width="11" height="35"></rect>
            <rect id="矩形" fill="#FFFFFF" transform="translate(99.798616, 29.196956) rotate(-45.000000) translate(-99.798616, -29.196956) " x="89.5486164" y="22.9469555" width="20.5" height="12.5"></rect>
            <rect id="矩形" fill="#FDBDF1" transform="translate(24.861647, 102.982411) rotate(-45.000000) translate(-24.861647, -102.982411) " x="19.3616467" y="97.482411" width="11" height="11"></rect>
            <path d="M27.426248,86.3598821 C27.426248,86.3598821 33.0765225,86.3668081 41.0234764,86.365423 C48.9745859,86.365423 57.640464,83.3567453 57.640464,83.3567453 L38.0147986,102.982411 L24.9799659,89.9475779 L27.4248628,86.3612673 L27.426248,86.3598821 Z" id="路径" fill="#FDBDF1" fill-rule="nonzero"></path>
            <path d="M94.7225548,37.5838424 L105.624163,26.6822342 L101.278757,22.3368282 L90.3771489,33.2384365 L94.7225548,37.5838424 Z M83.8514212,31.0733521 L101.29538,13.6293936 L114.331598,26.6656116 L96.8862539,44.1109553 L83.8514212,31.0761226 L83.8514212,31.0733521 Z" id="形状" fill="#7836A0" fill-rule="nonzero"></path>
            <path d="M71.2903304,22.8729047 C70.0879676,24.0752676 70.1904731,26.1336907 71.5064232,27.4496409 L100.512736,56.4559533 C101.814834,57.7580514 103.894035,57.8647126 105.088087,56.6706609 C106.290449,55.468298 106.187944,53.4098749 104.871994,52.0939247 L75.8670667,23.0889976 C74.5649686,21.7868995 72.4843821,21.6788532 71.2903304,22.8729047 Z M66.4628711,18.0454453 C70.0755006,14.4328158 76.2701629,14.7708072 80.22771,18.7283543 L109.234022,47.7346665 C113.223429,51.7240734 113.519864,57.8938019 109.915546,61.4981202 C106.302916,65.1107497 100.108254,64.7727583 96.1507071,60.8152114 L67.1457799,31.8102842 C63.1563731,27.8208774 62.8585528,21.6497636 66.4628711,18.0454453 Z M99.1302953,7.10366591 C97.9307029,8.30325833 97.9279324,10.2619463 99.1302953,11.4643092 L116.496682,28.830696 C117.704586,30.0385997 119.652192,30.0358293 120.857325,28.830696 C122.055533,27.6324886 122.059688,25.6724155 120.857325,24.4700527 L103.490939,7.10366591 C102.283035,5.89576212 100.335429,5.89853258 99.1302953,7.10366591 Z M94.7848893,2.75825997 C96.51498,1.02228638 98.864198,0.0452655984 101.315077,0.0423950228 C103.765957,0.0395495436 106.117447,1.01108872 107.851582,2.7430226 L125.217969,20.1094093 C128.822287,23.7137277 128.805664,29.5703985 125.201346,33.1747168 C123.471495,34.9104504 121.122677,35.8874512 118.672137,35.8905839 C116.221597,35.8936867 113.870301,34.9226656 112.136039,33.1913393 L94.769652,15.8249527 C91.1653337,12.2206343 91.1819563,6.36396351 94.7862745,2.7596452 L94.7848893,2.75825997 Z" id="形状" fill="#7836A0" fill-rule="nonzero"></path>
            <path d="M24.9979516,89.9295701 C24.9841215,89.9434222 38.0161838,102.981026 38.0161838,102.981026 C38.0217246,102.986566 88.1663525,52.8308568 88.1663525,52.8308568 L75.1315197,39.796024 L24.9979516,89.9295701 Z M75.1453718,31.0885894 L96.8724019,52.8156194 L42.3782124,107.309809 C41.228177,108.47459 39.6613233,109.132968 38.0244793,109.139296 C36.3876352,109.145447 34.8158077,108.499034 33.6569258,107.343054 L20.6193225,94.3054508 C18.2201375,91.9062658 18.2326044,88.0013568 20.6511823,85.5827789 L75.1453718,31.0885894 Z" id="形状" fill="#7836A0" fill-rule="nonzero"></path>
            <path d="M20.5999295,103.015656 C20.6040852,103.0115 24.9536468,107.361062 24.9536468,107.361062 C24.9494912,107.356906 29.3101346,102.996263 29.3101346,102.996263 L24.9647285,98.6508568 L20.5999295,103.015656 L20.5999295,103.015656 Z M24.981351,89.9434222 L38.0175691,102.97964 L29.2907415,111.706468 C26.8915664,114.108718 23.0005808,114.115534 20.5930035,111.721705 L16.2392862,107.367988 C13.845457,104.960411 13.8522735,101.069425 16.2545236,98.6702497 L24.981351,89.9434222 L24.981351,89.9434222 Z" id="形状" fill="#7836A0" fill-rule="nonzero"></path>
            <path d="M20.5999295,103.015656 C20.6040852,103.0115 24.9536468,107.361062 24.9536468,107.361062 C24.9494912,107.356906 29.3101346,102.996263 29.3101346,102.996263 L24.9647285,98.6508568 L20.5999295,103.015656 L20.5999295,103.015656 Z M24.981351,89.9434222 L38.0175691,102.97964 L29.2907415,111.706468 C26.8915664,114.108718 23.0005808,114.115534 20.5930035,111.721705 L16.2392862,107.367988 C13.845457,104.960411 13.8522735,101.069425 16.2545236,98.6702497 L24.981351,89.9434222 L24.981351,89.9434222 Z" id="形状" fill="#7836A0" fill-rule="nonzero"></path>
            <path d="M16.2434419,107.372143 L0.979805051,122.63578 C-0.225328283,123.840914 -0.228098737,125.78852 0.97287904,126.989497 C2.17247146,128.18909 4.12146301,128.184934 5.32521098,126.981186 L20.5888479,111.717549 C21.792596,110.513801 21.7967516,108.56481 20.5971591,107.365217 C19.3961814,106.16424 17.4471899,106.168395 16.2434419,107.372143 Z M60.9691254,47.4396167 L67.4865418,53.9570331 C68.088843,54.556278 69.0626996,54.5544183 69.6627078,53.9528775 C69.9522051,53.6648517 70.1154268,53.2736199 70.1164758,52.8652494 C70.117505,52.4568789 69.9562763,52.0648216 69.6682486,51.7753263 L63.1508322,45.2579098 C62.8614637,44.9692748 62.4692124,44.8075284 62.0605026,44.8083022 C61.6517928,44.8090873 61.2601613,44.9723287 60.9718958,45.2620654 C60.3707144,45.8632468 60.3679439,46.8384352 60.9691254,47.4396167 L60.9691254,47.4396167 Z M52.2478388,56.1609033 L58.7652552,62.6783197 C59.3675564,63.2775646 60.341413,63.2757049 60.9414212,62.6741641 C61.542962,62.0741559 61.5448217,61.1002993 60.9455768,60.4979981 L54.4281604,53.9805817 C54.1390319,53.6921876 53.7471812,53.5304613 53.338811,53.5309784 C52.9304409,53.5315004 52.5390029,53.6942232 52.2506092,53.9833521 C51.6494278,54.5845336 51.6466573,55.559722 52.2478388,56.1609033 L52.2478388,56.1609033 Z M43.5265521,64.88219 L50.0439684,71.3996064 C50.6462697,71.9988513 51.6201263,71.9969916 52.2201345,71.3954508 C52.8216753,70.7954425 52.823535,69.821586 52.2242902,69.2192847 L45.7068737,62.7018683 C45.4177453,62.4134741 45.0258945,62.2517478 44.6175243,62.2522649 C44.2091541,62.2527869 43.8177162,62.4155098 43.5293225,62.7046388 C42.9267558,63.3072054 42.9253706,64.2810086 43.5265521,64.88219 L43.5265521,64.88219 Z M34.8052654,73.6034766 L41.3226818,80.1208931 C41.9249831,80.7201379 42.8988396,80.7182782 43.4988479,80.1167374 C44.1003887,79.5167292 44.1022484,78.5428726 43.5030035,77.9405713 L36.9855871,71.4231549 C36.6964587,71.1347607 36.3046079,70.9730344 35.8962377,70.9735515 C35.4878675,70.9740736 35.0964296,71.1367964 34.8080359,71.4259254 C34.2054692,72.028492 34.204084,73.0022952 34.8052654,73.6034766 L34.8052654,73.6034766 Z" id="形状" fill="#7836A0" fill-rule="nonzero"></path>
        </g>
    </g>
</svg>